<svg 
  xmlns="http://www.w3.org/2000/svg" 
  width="64" 
  height="44" 
  fill="none"
  viewBox="0 0 64 42"
>
  <path fill="#FFFDF9" d="M0 0h63.724v44H0z" />
  <path fill-rule="evenodd" clip-rule="evenodd" d="M9.704 26.625c0-.863-.45-.806-.881-.815v-.25c.373.019.756.019 1.13.019.403 0 .95-.018 1.659-.018 2.482 0 3.833 1.659 3.833 3.358 0 .95-.556 3.34-3.948 3.34-.489 0-.94-.02-1.39-.02-.431 0-.853.01-1.284.02v-.25c.574-.059.853-.077.88-.73v-4.654zm.94 4.5c0 .74.527.825.996.825 2.07 0 2.75-1.563 2.75-2.993 0-1.794-1.15-3.09-2.999-3.09-.394 0-.575.029-.748.04v5.218zM15.781 32.008h.182c.268 0 .46 0 .46-.317v-2.6c0-.422-.144-.48-.499-.671v-.153c.45-.136.988-.317 1.026-.346a.337.337 0 0 1 .173-.049c.047 0 .066.058.066.136v3.683c0 .317.212.317.48.317h.163v.25c-.326 0-.662-.019-1.006-.019-.345 0-.69.01-1.045.02v-.25zm1.025-5.613c-.25 0-.47-.23-.47-.48 0-.24.231-.46.47-.46a.47.47 0 0 1 .47.46c0 .26-.211.48-.47.48zM18.742 29.149c0-.355-.105-.45-.555-.633v-.182c.411-.134.804-.26 1.264-.462.03 0 .057.02.057.096v.624c.547-.392 1.017-.72 1.66-.72.814 0 1.101.596 1.101 1.344v2.475c0 .317.212.317.48.317h.173v.25c-.337 0-.672-.019-1.017-.019-.345 0-.69.01-1.035.02v-.25h.173c.268 0 .459 0 .459-.318v-2.484c0-.548-.334-.816-.88-.816-.308 0-.796.25-1.114.461v2.84c0 .316.212.316.48.316h.173v.25c-.335 0-.671-.019-1.017-.019-.344 0-.69.01-1.034.02v-.25h.173c.268 0 .46 0 .46-.318V29.15zM23.65 29.61c-.02.086-.02.23 0 .557.056.91.642 1.659 1.408 1.659.528 0 .94-.288 1.294-.642l.134.134c-.44.585-.987 1.084-1.772 1.084-1.524 0-1.831-1.478-1.831-2.092 0-1.88 1.265-2.438 1.935-2.438.777 0 1.611.49 1.62 1.507 0 .058 0 .115-.008.173l-.087.058H23.65zm1.697-.307c.239 0 .267-.125.267-.24 0-.49-.297-.883-.834-.883-.584 0-.987.431-1.102 1.123h1.669zM26.66 32.008h.258c.268 0 .46 0 .46-.317v-2.696c0-.296-.355-.355-.499-.432v-.143c.7-.298 1.083-.548 1.17-.548.057 0 .086.03.086.126v.863h.02c.239-.374.642-.989 1.226-.989.24 0 .546.163.546.51 0 .258-.181.49-.45.49-.297 0-.297-.232-.633-.232-.163 0-.7.221-.7.797v2.254c0 .317.192.317.46.317h.537v.25c-.527-.01-.929-.019-1.341-.019-.393 0-.796.01-1.14.02v-.25zM30.349 30.924c.125.633.507 1.171 1.208 1.171.565 0 .775-.345.775-.681 0-1.133-2.088-.768-2.088-2.313 0-.538.431-1.228 1.485-1.228.307 0 .718.087 1.092.279l.067.978h-.22c-.096-.604-.43-.95-1.045-.95-.383 0-.747.22-.747.633 0 1.124 2.223.777 2.223 2.284 0 .633-.507 1.305-1.648 1.305-.383 0-.835-.134-1.169-.326l-.106-1.104.173-.048zM41.753 27.297h-.239c-.182-1.122-.978-1.573-2.05-1.573-1.104 0-2.704.738-2.704 3.04 0 1.94 1.38 3.331 2.856 3.331.948 0 1.736-.652 1.927-1.66l.22.057-.22 1.401c-.402.25-1.486.51-2.119.51-2.242 0-3.66-1.45-3.66-3.609 0-1.967 1.754-3.378 3.632-3.378.776 0 1.524.25 2.262.51l.095 1.37zM42.1 32.008h.18c.27 0 .461 0 .461-.317v-5.343c0-.624-.143-.643-.508-.75v-.153c.383-.124.786-.297.988-.413.104-.056.181-.105.21-.105.058 0 .077.058.077.135v6.63c0 .316.211.316.479.316h.162v.25c-.325 0-.66-.019-1.005-.019-.345 0-.69.01-1.045.02v-.25zM48.253 31.73c0 .173.105.182.267.182.116 0 .259-.009.384-.009v.202c-.412.038-1.198.24-1.38.297l-.049-.029v-.777c-.574.47-1.015.806-1.697.806-.517 0-1.053-.336-1.053-1.141v-2.457c0-.25-.039-.49-.575-.537v-.183c.346-.01 1.11-.067 1.236-.067.106 0 .106.067.106.278v2.476c0 .288 0 1.112.834 1.112.325 0 .757-.249 1.159-.584v-2.582c0-.191-.46-.297-.804-.392v-.173c.861-.059 1.399-.135 1.494-.135.078 0 .078.067.078.173v3.54zM50.16 28.563c.383-.325.9-.69 1.427-.69 1.112 0 1.783.97 1.783 2.015 0 1.257-.92 2.514-2.291 2.514-.709 0-1.083-.23-1.332-.336l-.287.22-.201-.105a11.27 11.27 0 0 0 .134-1.708v-4.125c0-.624-.144-.643-.508-.75v-.153c.383-.124.785-.297.986-.413.106-.056.183-.105.212-.105.057 0 .076.058.076.135v3.501zm0 2.61c0 .365.345.98.987.98 1.025 0 1.456-1.008 1.456-1.862 0-1.037-.785-1.9-1.532-1.9-.357 0-.653.23-.912.452v2.33zM13.986 36.965l.01-.01v-1.957c0-.429-.298-.492-.454-.492h-.115v-.156c.246 0 .485.02.73.02.214 0 .429-.02.642-.02v.156h-.078c-.22 0-.465.042-.465.663v2.376c0 .183.005.366.031.528h-.198l-2.685-2.998v2.152c0 .454.088.61.49.61h.088v.157c-.224 0-.448-.02-.672-.02-.234 0-.475.02-.71.02v-.157h.074c.36 0 .469-.245.469-.662v-2.2c0-.291-.24-.469-.474-.469H10.6v-.156c.198 0 .402.02.6.02.157 0 .308-.02.464-.02l2.322 2.615z" fill="#1A1919" />
  <path fill-rule="evenodd" clip-rule="evenodd" d="m14.287 38.095-.215-.008-2.646-2.953v2.093c.006.454.075.583.468.588h.111v.202h-.023c-.225 0-.45-.021-.672-.021-.234 0-.473.02-.71.02h-.023v-.201h.097c.344-.002.443-.224.447-.64v-2.199a.447.447 0 0 0-.452-.447h-.092v-.202h.023c.2 0 .404.02.6.02.155 0 .306-.02.481-.012l2.292 2.583v-1.92c-.002-.415-.28-.465-.43-.469h-.139v-.202h.023c.247 0 .487.02.73.02.212 0 .426-.02.642-.02h.023v.202h-.1c-.216.006-.437.025-.443.64v2.376c0 .183.005.365.03.524l.005.026h-.027zm-.198-.046h.173a3.518 3.518 0 0 1-.028-.504V35.17c0-.626.262-.685.487-.686h.055v-.11c-.205 0-.411.02-.619.02-.239 0-.47-.02-.707-.02v.11h.092c.16 0 .476.072.476.515l-.007 1.973-.01.01-.018.017-2.319-2.626c-.155 0-.306.02-.465.02-.19 0-.386-.018-.576-.02v.111h.046c.244 0 .496.188.496.493v2.2c0 .417-.116.684-.491.685l-.05-.001v.112c.225-.002.458-.021.686-.021.217 0 .434.02.65.02v-.11h-.066c-.41-.001-.512-.18-.513-.634v-2.21l2.708 3.032zm-.103-1.084.016-.015-.016.015zm-.013-.01v-.002l-.004-.003.004.005zM15.58 34.61c-.391 0-.407.095-.485.476h-.156c.02-.146.046-.292.062-.444a3.12 3.12 0 0 0 .032-.443h.125c.042.156.172.15.314.15h2.69c.14 0 .27-.004.282-.161l.124.021c-.02.14-.041.282-.057.423-.01.141-.01.282-.01.422l-.157.059c-.01-.193-.036-.502-.386-.502h-.855v2.778c0 .402.183.448.433.448h.1v.157c-.204 0-.57-.02-.85-.02-.314 0-.68.02-.883.02v-.157h.1c.287 0 .433-.025.433-.438v-2.788h-.856z" fill="#1A1919" />
  <path fill-rule="evenodd" clip-rule="evenodd" d="M17.636 38.017c-.206 0-.57-.021-.85-.021-.313 0-.678.02-.883.02h-.022v-.201h.122c.287-.007.403-.01.41-.416v-2.766h-.833v-.046h.877V37.4c0 .42-.168.462-.454.462h-.077v.11c.205 0 .557-.02.86-.02.271 0 .62.02.826.02v-.11h-.076c-.252 0-.455-.062-.455-.472v-2.802h.878c.35.002.396.3.407.494l.113-.042c0-.136 0-.273.01-.41.015-.135.034-.268.053-.401l-.079-.014c-.024.152-.171.16-.302.158h-2.717c-.123 0-.256-.005-.303-.15h-.086c-.001.143-.01.283-.03.423-.016.143-.04.28-.059.42h.111c.069-.365.113-.483.503-.477v.045c-.386.008-.378.072-.463.458l-.003.018h-.201l.002-.027c.022-.146.048-.292.063-.444.022-.145.032-.29.032-.44v-.022h.166l.004.016c.035.132.131.133.264.135h2.717c.145-.002.251-.004.26-.14l.002-.026.024.005.147.023-.004.024c-.02.14-.04.28-.057.42-.01.14-.01.28-.01.421v.016l-.014.006-.185.068-.001-.03c-.015-.197-.035-.48-.364-.48h-.833v2.755c.005.393.161.42.41.426h.122v.202h-.022zM18.735 37.837h.073c.187 0 .386-.025.386-.297v-2.735c0-.273-.199-.298-.386-.298h-.073v-.157c.317 0 .86.02 1.298.02.438 0 .98-.02 1.335-.02-.01.224-.005.57.01.799l-.156.041c-.025-.34-.088-.61-.636-.61h-.724v1.367h.62c.313 0 .38-.177.412-.459h.156a11.877 11.877 0 0 0 0 1.206l-.156.031c-.031-.313-.047-.516-.407-.516h-.625v1.216c0 .34.301.34.635.34.626 0 .903-.043 1.06-.637l.145.036c-.068.277-.13.553-.177.83-.334 0-.934-.02-1.402-.02-.47 0-1.09.02-1.388.02v-.157z" fill="#1A1919" />
  <path fill-rule="evenodd" clip-rule="evenodd" d="M21.524 38.017c-.334 0-.934-.022-1.402-.022-.47 0-1.09.022-1.387.022h-.022v-.202h.095c.189-.003.36-.02.363-.275v-2.735c-.003-.255-.174-.273-.363-.276h-.095v-.202h.021c.32 0 .861.02 1.299.02.438 0 .98-.02 1.335-.02h.023l-.001.024a8.22 8.22 0 0 0 .01.796l.001.019-.017.005-.184.048v-.027c-.031-.339-.077-.585-.614-.59h-.703v1.322h.599c.3-.003.354-.157.39-.438v-.021h.201v.024a11.698 11.698 0 0 0 0 1.204v.019l-.019.004-.181.037-.002-.025c-.036-.319-.038-.493-.384-.497h-.604v1.194c.001.317.274.315.614.317.628-.004.88-.034 1.037-.62l.005-.021.022.003.167.044-.005.021c-.067.277-.13.553-.177.829l-.003.019h-.018zm-.019-.045c.046-.264.105-.528.17-.791l-.104-.026c-.156.584-.458.636-1.074.632-.328 0-.657 0-.659-.362v-1.239h.649c.364-.004.4.216.427.513l.112-.023a11.04 11.04 0 0 1 0-1.166h-.112c-.03.273-.115.463-.433.46h-.643v-1.413h.748c.543-.005.632.276.656.605l.112-.03a8.786 8.786 0 0 1-.01-.76c-.354.002-.883.02-1.311.02-.429 0-.956-.018-1.276-.02v.111h.05c.187 0 .408.033.41.322v2.735c-.002.288-.223.32-.41.321h-.05v.11c.304 0 .907-.02 1.365-.02.46 0 1.047.02 1.383.02zM22.406 34.903c0-.381-.209-.397-.37-.397h-.095v-.156c.167 0 .49.02.809.02.312 0 .563-.02.84-.02.655 0 1.24.177 1.24.919 0 .47-.313.756-.724.92l.89 1.335c.147.22.25.283.507.313v.157c-.172 0-.34-.02-.51-.02-.162 0-.33.02-.491.02a14.465 14.465 0 0 1-1.085-1.692h-.344v1.118c0 .402.188.417.427.417h.094v.157c-.298 0-.599-.02-.897-.02-.25 0-.495.02-.756.02v-.157h.094c.194 0 .37-.088.37-.28v-2.654zm.667 1.21h.255c.522 0 .803-.197.803-.813 0-.465-.297-.762-.762-.762-.156 0-.223.016-.296.02v1.556z" fill="#1A1919" />
  <path fill-rule="evenodd" clip-rule="evenodd" d="M25.503 38.017c-.175 0-.34-.021-.512-.021-.16 0-.326.02-.508.012-.4-.526-.742-1.086-1.08-1.682h-.307v1.093c.005.393.163.39.404.396h.117v.202h-.023c-.298 0-.601-.021-.897-.021-.249 0-.494.02-.756.02h-.023v-.201h.117c.188-.002.346-.083.347-.259v-2.653c-.004-.37-.185-.369-.347-.374h-.117v-.202h.023c.169 0 .49.02.809.02.311 0 .561-.02.84-.02.657.001 1.262.183 1.263.941 0 .471-.31.766-.713.93l.876 1.313c.146.217.236.271.49.304l.019.003v.199h-.022zm-2.43-1.737h.356l.007.011c.34.6.682 1.164 1.066 1.68.159 0 .326-.02.489-.02.166 0 .327.018.49.02v-.114c-.245-.03-.36-.104-.502-.32l-.908-1.36.025-.01c.409-.16.712-.44.712-.899 0-.724-.563-.892-1.219-.896-.274 0-.525.021-.84.021-.306 0-.615-.02-.786-.02v.11h.072c.162 0 .392.028.392.42v2.653c0 .21-.196.305-.392.305h-.072v.11c.251 0 .49-.02.734-.02.291 0 .586.02.874.02v-.11H23.5c-.238 0-.45-.03-.45-.442v-1.14h.023zm0-.144h-.023v-1.598l.02-.002c.071-.006.142-.02.3-.02.474 0 .784.309.784.785-.001.623-.3.835-.826.835h-.255zm.255-.044c.516-.005.777-.184.782-.791-.003-.456-.286-.74-.74-.741-.141 0-.208.013-.274.02v1.512h.232zM29.044 36.965l.009-.01v-1.957c0-.429-.297-.492-.453-.492h-.115v-.156c.246 0 .485.02.73.02.215 0 .427-.02.643-.02v.156h-.08c-.218 0-.463.042-.463.663v2.376c0 .183.005.366.03.528h-.197l-2.685-2.998v2.152c0 .454.088.61.49.61h.088v.157c-.224 0-.448-.02-.673-.02-.235 0-.474.02-.709.02v-.157h.072c.36 0 .47-.245.47-.662v-2.2c0-.291-.24-.469-.474-.469h-.068v-.156c.197 0 .402.02.6.02.155 0 .307-.02.464-.02l2.32 2.615z" fill="#1A1919" />
  <path fill-rule="evenodd" clip-rule="evenodd" d="m29.345 38.095-.214-.008-2.647-2.953v2.093c.006.454.075.583.468.588h.11v.202h-.022c-.225 0-.45-.022-.672-.022-.233 0-.474.022-.71.022h-.023v-.202h.096c.345-.002.444-.224.447-.64v-2.2a.445.445 0 0 0-.451-.446h-.091v-.202h.023c.199 0 .403.02.6.02.153 0 .304-.02.479-.013l2.293 2.584v-1.92c-.002-.415-.28-.466-.431-.469h-.138v-.202h.023c.246 0 .487.02.73.02.213 0 .427-.02.642-.02h.023v.202h-.101c-.215.005-.437.025-.442.64v2.376c0 .183.005.364.031.524l.003.026h-.026zm-.197-.046h.171a3.568 3.568 0 0 1-.027-.504V35.17c0-.626.264-.684.487-.686h.055v-.11c-.206 0-.412.02-.619.02-.24 0-.471-.02-.707-.02v.11h.092c.16.002.476.072.476.515l-.007 1.973-.01.01-.016.018-2.32-2.627c-.155 0-.307.02-.464.02-.194 0-.388-.018-.578-.02v.111h.046a.491.491 0 0 1 .496.493v2.198c0 .42-.118.686-.492.687h-.05v.11c.225 0 .458-.02.686-.02.22 0 .436.02.651.02v-.11h-.066c-.41 0-.512-.18-.514-.634v-2.21l2.71 3.032zm-.105-1.084.017-.015-.017.015zm-.012-.01v-.002l-.004-.003.004.005zM30.696 37.248c-.053.177-.116.314-.116.407 0 .157.22.182.392.182h.058v.157a11.79 11.79 0 0 0-.632-.02c-.188 0-.375.009-.563.02v-.157h.032c.203 0 .375-.12.453-.34l.834-2.395c.068-.194.162-.454.194-.648.166-.057.375-.161.474-.224.016-.006.026-.011.042-.011.015 0 .025 0 .037.016.015.042.03.089.046.13l.96 2.731c.063.183.125.376.192.533.063.147.173.209.345.209h.032v.156c-.235-.011-.47-.02-.72-.02-.255 0-.517.009-.783.02v-.157h.058c.119 0 .324-.02.324-.15 0-.068-.048-.21-.106-.377l-.203-.605h-1.184l-.166.543zm.761-2.313h-.01l-.485 1.477h.974l-.479-1.477z" fill="#1A1919" />
  <path fill-rule="evenodd" clip-rule="evenodd" d="M33.474 38.017c-.234-.01-.47-.022-.718-.022-.255 0-.516.012-.782.022h-.024v-.203h.08c.121 0 .3-.027.301-.128.001-.06-.046-.202-.103-.368l-.199-.591h-1.15l-.162.528c-.052.177-.116.315-.115.4.002.127.197.159.37.159h.08v.204l-.024-.001c-.208-.01-.421-.022-.63-.022-.186 0-.375.012-.561.022h-.024v-.203h.054c.193 0 .355-.111.43-.324l.836-2.396c.067-.193.162-.453.207-.662.164-.055.373-.16.474-.224.014-.005.029-.011.05-.011.012-.001.04.002.057.03l.047.131.96 2.73c.062.184.124.377.193.531.06.14.156.194.323.195h.053v.204l-.023-.001zm-1.478-.047c.258-.009.511-.019.76-.019.242 0 .47.01.696.02v-.11h-.008c-.178.001-.301-.07-.365-.223-.068-.158-.132-.352-.193-.535l-.96-2.73c-.016-.042-.03-.089-.045-.126-.005-.005-.003-.005-.008-.005h-.01c-.01 0-.016.003-.03.006-.1.066-.31.169-.464.21-.032.197-.126.458-.194.651l-.834 2.396a.497.497 0 0 1-.474.356h-.01v.11c.18-.01.36-.02.541-.02.202 0 .408.01.607.02v-.11h-.033c-.17-.002-.408-.021-.414-.206 0-.104.064-.237.116-.414l.022.007-.022-.007.171-.558h1.216l.21.62c.058.168.105.307.105.383-.008.16-.227.172-.345.175h-.035v.11zm-1.066-1.535.5-1.523h.027v.023l-.005.001.005-.001v-.023h.016l.495 1.523H30.93zm.062-.046h.913l-.454-1.399-.459 1.4zm.442-1.448.013-.003-.012.003zM33.705 34.61c-.391 0-.407.095-.486.476h-.156c.02-.146.047-.292.063-.444.02-.147.03-.292.03-.443h.127c.04.156.171.15.312.15h2.691c.14 0 .27-.004.28-.161l.126.021c-.02.14-.04.282-.057.423-.011.141-.011.282-.011.422l-.156.059c-.01-.193-.036-.502-.386-.502h-.855v2.778c0 .402.183.448.433.448h.1v.157c-.204 0-.569-.02-.85-.02-.313 0-.68.02-.882.02v-.157h.099c.287 0 .433-.025.433-.438v-2.788h-.855z" fill="#1A1919" />
  <path fill-rule="evenodd" clip-rule="evenodd" d="M35.76 38.017c-.205 0-.571-.021-.851-.021-.312 0-.677.02-.881.02h-.023v-.201h.122c.287-.007.403-.01.41-.416v-2.766h-.832v-.046h.877V37.4c0 .42-.169.46-.455.462h-.077v.11c.206 0 .556-.02.859-.02.272 0 .621.02.827.02v-.11h-.076c-.252-.001-.455-.062-.455-.472v-2.802h.877c.35.002.396.3.406.494l.114-.042c0-.136 0-.273.011-.41.014-.134.034-.268.053-.4l-.079-.015c-.024.152-.171.16-.3.158h-2.719c-.123.002-.256-.005-.303-.151h-.086a3.07 3.07 0 0 1-.032.424c-.014.144-.039.282-.059.42h.112c.069-.365.114-.483.505-.477v.045c-.387.007-.378.072-.463.458l-.004.018h-.202l.003-.026c.022-.147.048-.293.063-.444a3.03 3.03 0 0 0 .031-.44v-.023h.166l.004.016c.037.132.132.133.265.135h2.718c.144-.002.25-.004.259-.14v-.026l.025.005.148.023-.004.024c-.021.14-.04.28-.056.42-.011.14-.011.28-.011.421v.016l-.015.006-.185.068v-.03c-.014-.197-.035-.48-.365-.48h-.832v2.755c.005.393.161.42.41.426h.121v.202h-.021zM36.885 37.837h.073c.188 0 .385-.025.385-.297v-2.735c0-.273-.197-.298-.385-.298h-.073v-.157c.203 0 .515.02.77.02.262 0 .575-.02.82-.02v.157h-.073c-.188 0-.386.026-.386.298v2.735c0 .272.198.297.386.297h.074v.157c-.25 0-.564-.02-.825-.02-.256 0-.563.02-.766.02v-.157z" fill="#1A1919" />
  <path fill-rule="evenodd" clip-rule="evenodd" d="M38.476 38.017c-.252 0-.564-.022-.824-.022-.256 0-.564.022-.767.022h-.023v-.202h.096c.188-.003.361-.02.362-.275v-2.735c0-.255-.174-.273-.362-.276h-.096v-.202h.023c.203 0 .517.02.77.02.26 0 .574-.02.82-.02h.022v.202h-.094c-.191.003-.363.02-.364.276v2.735c.001.255.173.272.364.275h.094v.202h-.021zm-.024-.045v-.111h-.05c-.187 0-.408-.033-.408-.321v-2.735c0-.29.221-.321.409-.322h.049v-.11c-.24 0-.542.02-.796.02-.248 0-.546-.02-.749-.02v.11h.05c.186 0 .408.033.409.322v2.735c0 .288-.223.32-.408.32h-.05v.112c.2-.003.495-.021.744-.021.252 0 .554.02.8.02zM40.555 34.272c1.112 0 1.998.69 1.998 1.802 0 1.2-.86 1.999-1.971 1.999-1.106 0-1.95-.752-1.95-1.875 0-1.085.839-1.926 1.923-1.926zm.079 3.57c1.012 0 1.188-.893 1.188-1.654 0-.763-.41-1.687-1.277-1.687-.912 0-1.184.815-1.184 1.514 0 .934.428 1.828 1.273 1.828z" fill="#1A1919" />
  <path fill-rule="evenodd" clip-rule="evenodd" d="M38.608 36.198a1.924 1.924 0 0 1 1.947-1.95v.046c-1.072 0-1.901.83-1.903 1.904.002 1.11.835 1.85 1.93 1.851 1.1 0 1.947-.787 1.949-1.976-.001-1.099-.873-1.778-1.976-1.779v-.045c1.12 0 2.018.698 2.02 1.824 0 1.213-.872 2.02-1.993 2.022-1.115-.002-1.972-.762-1.974-1.897zm.73-.183c.002-.703.276-1.537 1.207-1.537.886.002 1.298.943 1.3 1.71-.002.761-.18 1.676-1.21 1.676v-.044c.99 0 1.163-.87 1.165-1.632 0-.756-.407-1.663-1.255-1.664-.895.001-1.159.795-1.161 1.491 0 .93.424 1.804 1.25 1.805v.044c-.865 0-1.294-.91-1.295-1.849M46.067 36.965l.01-.01v-1.957c0-.429-.297-.492-.454-.492h-.113v-.156c.244 0 .485.02.729.02.214 0 .428-.02.642-.02v.156h-.078c-.219 0-.465.042-.465.663v2.376c0 .183.006.366.032.528h-.198l-2.686-2.998v2.152c0 .454.089.61.49.61h.089v.157c-.225 0-.449-.02-.673-.02-.235 0-.475.02-.71.02v-.157h.074c.36 0 .469-.245.469-.662v-2.2c0-.291-.24-.469-.475-.469h-.068v-.156c.199 0 .402.02.6.02.157 0 .307-.02.464-.02l2.321 2.615z" fill="#1A1919" />
  <path fill-rule="evenodd" clip-rule="evenodd" d="m46.37 38.095-.215-.008-2.647-2.953v2.093c.006.454.075.582.467.587h.112v.203h-.022c-.226 0-.45-.021-.673-.021-.234 0-.474.02-.71.02h-.022v-.202h.096c.343-.001.442-.223.446-.639v-2.2a.445.445 0 0 0-.452-.446h-.09v-.202h.022c.2 0 .403.02.6.02.155 0 .305-.02.482-.012l2.291 2.583v-1.92c-.002-.415-.28-.465-.432-.469h-.137v-.202h.024c.245 0 .485.02.728.02.214 0 .427-.02.643-.02h.022v.202h-.1c-.215.006-.437.025-.442.64v2.376c0 .183.005.365.03.524l.004.026h-.025zm-.198-.046h.17a3.702 3.702 0 0 1-.027-.504V35.17c0-.627.264-.684.488-.686h.056v-.11c-.207 0-.412.02-.62.02-.238 0-.471-.02-.707-.02v.11h.091c.161.002.476.073.476.515l-.005 1.973-.01.01-.017.018-2.32-2.627c-.155 0-.307.02-.465.02-.192 0-.388-.018-.578-.02v.111h.046a.492.492 0 0 1 .497.493v2.2c0 .417-.116.684-.492.685h-.05v.11c.226 0 .458-.02.687-.02.218 0 .434.02.65.02v-.11h-.067c-.41 0-.512-.18-.512-.634v-2.21l2.709 3.032zm-.105-1.084.017-.015-.017.015zm-.012-.01v-.002l-.004-.003.004.005zM47.719 37.248c-.051.177-.114.314-.114.407 0 .157.22.182.39.182h.059v.157c-.21-.011-.423-.02-.632-.02a9.32 9.32 0 0 0-.562.02v-.157h.03c.204 0 .377-.12.453-.34l.836-2.395c.067-.194.162-.454.192-.648a2.68 2.68 0 0 0 .476-.224c.014-.006.025-.011.041-.011.015 0 .025 0 .036.016.016.042.031.089.047.13l.96 2.731c.062.183.125.376.193.533.062.147.172.209.344.209h.032v.156c-.235-.011-.47-.02-.72-.02-.256 0-.517.009-.783.02v-.157h.058c.119 0 .323-.02.323-.15 0-.068-.046-.21-.105-.377l-.203-.605h-1.184l-.167.543zm.762-2.313h-.01l-.486 1.477h.977l-.48-1.477z" fill="#1A1919" />
  <path fill-rule="evenodd" clip-rule="evenodd" d="M50.498 38.017c-.236-.01-.47-.021-.718-.021-.255 0-.516.011-.782.02l-.023.002v-.203h.08c.12 0 .3-.028.3-.129.002-.06-.045-.202-.104-.368l-.198-.591h-1.151l-.161.528c-.053.178-.114.315-.114.4 0 .127.196.16.368.16h.08v.203l-.024-.001c-.208-.01-.421-.021-.629-.021-.187 0-.374.011-.562.02l-.023.002v-.203h.052c.195-.001.357-.113.434-.325l.834-2.396c.067-.193.161-.453.207-.66.164-.058.373-.162.475-.226.013-.005.028-.011.049-.011a.059.059 0 0 1 .057.03c.016.042.03.09.048.131l.959 2.73c.063.184.125.377.193.532.06.139.155.193.322.195h.054v.203l-.023-.001zm-1.479-.046c.258-.01.512-.02.76-.02.243 0 .47.01.697.02v-.11h-.009c-.177 0-.3-.07-.365-.223-.068-.158-.13-.352-.193-.534l-.96-2.732a5.399 5.399 0 0 1-.044-.124c-.004-.006-.004-.006-.007-.006h-.01c-.011 0-.017.003-.03.007a2 2 0 0 1-.464.208c-.033.198-.127.459-.194.652l-.836 2.396a.496.496 0 0 1-.475.356h-.007v.11c.18-.01.359-.02.54-.02.202 0 .408.01.609.02v-.11h-.036c-.17-.002-.407-.02-.414-.206.002-.104.066-.237.117-.414l.02.007-.02-.007.172-.558h1.215l.21.62c.057.168.105.307.105.383-.008.16-.227.172-.346.175h-.035v.11zm-1.065-1.536.5-1.523h.027v.023l-.006.001.006-.001v-.023h.016l.493 1.523h-1.036zm.063-.046h.912l-.454-1.398-.459 1.398zm.443-1.448.01-.003-.01.003zM51.813 37.482c0 .21.145.272.313.294.213.015.448.015.689-.011a.742.742 0 0 0 .5-.283 1.2 1.2 0 0 0 .161-.375h.151c-.057.297-.13.59-.193.887-.458 0-.918-.02-1.376-.02-.46 0-.918.02-1.377.02v-.157h.073c.188 0 .392-.025.392-.35v-2.682c0-.273-.204-.299-.392-.299h-.073v-.156c.276 0 .548.02.824.02.266 0 .526-.02.793-.02v.156h-.131c-.198 0-.354.006-.354.283v2.693z" fill="#1A1919" />
  <path fill-rule="evenodd" clip-rule="evenodd" d="M53.434 38.017c-.46 0-.919-.021-1.376-.021-.459 0-.918.02-1.378.02h-.022v-.201h.096c.188-.005.367-.018.37-.327v-2.684c-.003-.255-.181-.272-.37-.275h-.096v-.202h.022c.278 0 .55.02.824.02.266 0 .526-.02.794-.02h.021v.202h-.152c-.202.005-.328-.004-.332.26v2.693c.001.196.129.248.292.271a4.24 4.24 0 0 0 .684-.01.73.73 0 0 0 .485-.273c.08-.112.126-.255.158-.369l.004-.017h.197l-.005.028c-.059.298-.13.59-.194.887l-.004.018h-.017zm-.019-.045c.06-.284.129-.561.185-.843h-.107a1.182 1.182 0 0 1-.16.367.775.775 0 0 1-.517.291 4.008 4.008 0 0 1-.694.01c-.17-.018-.333-.091-.333-.315V34.79c0-.29.183-.306.378-.306h.107v-.11c-.256 0-.51.02-.77.02-.27 0-.533-.02-.8-.02v.11h.05c.185 0 .413.033.413.32v2.685c0 .338-.227.373-.413.373h-.05v.11c.45 0 .901-.02 1.354-.02.453 0 .906.02 1.357.02z" fill="#1A1919" />
  <path fill-rule="evenodd" clip-rule="evenodd" d="M20.992 15.917c0-4.884 3.954-8.843 8.832-8.843s8.832 3.96 8.832 8.843c0 4.884-3.954 8.843-8.832 8.843s-8.832-3.96-8.832-8.843z" fill="#FFFFFE" />
  <path fill-rule="evenodd" clip-rule="evenodd" d="M35.165 15.743a5.32 5.32 0 0 0-3.41-4.96v9.92a5.32 5.32 0 0 0 3.41-4.96zm-7.21 4.958v-9.918a5.324 5.324 0 0 0-3.407 4.96 5.323 5.323 0 0 0 3.407 4.958zm1.902-13.343c-4.626.001-8.373 3.754-8.374 8.385 0 4.63 3.748 8.382 8.373 8.383 4.626 0 8.374-3.753 8.375-8.383 0-4.631-3.75-8.384-8.375-8.385zm-.021 17.56c-5.061.024-9.227-4.082-9.227-9.08 0-5.461 4.165-9.239 9.227-9.238h2.372c5.002-.001 9.566 3.775 9.566 9.239 0 4.995-4.564 9.079-9.566 9.079h-2.372z" fill="#0069AA" />
  <path fill-rule="evenodd" clip-rule="evenodd" d="M8.812 37.837h.073c.188 0 .386-.025.386-.297v-2.735c0-.273-.198-.298-.386-.298h-.073v-.157c.204 0 .516.02.773.02.26 0 .573-.02.818-.02v.157h-.074c-.187 0-.385.026-.385.298v2.735c0 .272.198.297.385.297h.074v.157c-.25 0-.564-.02-.824-.02-.256 0-.563.02-.767.02v-.157z" fill="#1A1919" />
  <path fill-rule="evenodd" clip-rule="evenodd" d="M10.403 38.017c-.252 0-.564-.021-.824-.021-.255 0-.562.02-.767.02H8.79v-.201h.095c.19-.005.362-.02.363-.275v-2.735c-.001-.256-.174-.273-.363-.276H8.79v-.202h.022c.205 0 .518.02.773.02.259 0 .571-.02.818-.02h.023v.202h-.096c-.19.003-.362.02-.363.276v2.735c0 .255.174.27.363.275h.096v.202h-.023zm-.023-.045v-.111h-.05c-.186 0-.408-.033-.41-.321v-2.735c.002-.29.224-.321.41-.321h.05v-.112c-.24 0-.542.021-.795.021-.248 0-.548-.02-.75-.02v.11h.05c.186 0 .408.033.408.322v2.735c0 .288-.222.32-.408.32h-.05v.112c.202-.002.497-.021.744-.021.254 0 .555.02.801.02zM53.564 34.202a.54.54 0 0 1 .549.55.538.538 0 0 1-.55.549.538.538 0 0 1-.548-.548.54.54 0 0 1 .549-.551zm0 .997c.246 0 .434-.21.434-.446a.443.443 0 0 0-.434-.448.444.444 0 0 0-.435.448c0 .236.188.446.435.446zm-.273-.156v-.027c.067-.01.08-.008.08-.05v-.407c0-.057-.006-.077-.078-.073v-.029h.28c.097 0 .186.047.186.147 0 .081-.053.142-.13.166l.091.126a.58.58 0 0 0 .12.13v.017h-.106c-.051 0-.097-.108-.197-.253h-.061v.182c0 .036.012.034.08.044v.027h-.265zm.185-.29h.065c.07 0 .103-.054.103-.14 0-.088-.05-.119-.107-.119h-.061v.259z" fill="#1A1919" />
</svg>