<svg 
  xmlns="http://www.w3.org/2000/svg" 
  width="64" 
  height="44" 
  fill="none"
  viewBox="0 0 64 42"
>
  <path fill="#FFFDF9" d="M0 0h63.724v44H0z" />
  <path fill-rule="evenodd" clip-rule="evenodd" d="M42.178 22.122H45.309a1.746 1.746 0 0 1 .207.016 1.996 1.996 0 0 1 .135.02l.02.004a1.303 1.303 0 0 1 .311.113 1.352 1.352 0 0 1 .362.264 1.36 1.36 0 0 1 .362.66 1.465 1.465 0 0 1-.206 1.13 1.451 1.451 0 0 1-.26.283 1.36 1.36 0 0 1-.568.28l-.02.005a.69.69 0 0 1-.084.014 2.54 2.54 0 0 1-.259.02H42.178v-2.809zm4.166-3.18a1.387 1.387 0 0 1-.103.892 1.226 1.226 0 0 1-.57.56 1.356 1.356 0 0 1-.361.118l-.013.002a.857.857 0 0 1-.09.012 2.659 2.659 0 0 1-.208.012H42.178v-2.592H45.05a2.4 2.4 0 0 1 .246.022l.013.003a1.277 1.277 0 0 1 .31.095 1.358 1.358 0 0 1 .362.238 1.25 1.25 0 0 1 .31.464c.022.056.04.114.052.175zM52.762 5.5h.02v26.625a5.337 5.337 0 0 1-.59 2.432 5.03 5.03 0 0 1-.362.599 6.398 6.398 0 0 1-.207.277 6.261 6.261 0 0 1-.103.125l-.052.06a4.75 4.75 0 0 1-.104.115l-.051.055-.052.053-.052.053-.052.05-.051.05-.052.047a7.54 7.54 0 0 1-.207.18l-.052.043-.052.04a3.952 3.952 0 0 1-.052.04l-.051.04-.052.038-.052.038-.052.036-.051.035-.052.035-.052.033c-.017.012-.034.022-.052.033l-.051.032-.052.031-.052.03-.052.03-.051.03-.052.028-.052.027-.052.027-.051.026-.052.025-.052.025-.052.024-.051.023-.052.022-.052.023-.052.02-.051.022-.052.02-.052.019-.052.019-.051.018-.052.018-.052.017-.052.016a5.11 5.11 0 0 1-.051.016l-.052.016-.052.015-.052.014-.051.013-.052.013-.052.013-.052.012-.051.011-.052.012-.052.01-.052.01-.052.01-.051.008-.052.008-.052.008-.051.007-.052.007c-.017.003-.035.004-.052.006L48 37.42l-.051.006-.052.004-.052.005-.052.003-.051.004c-.018 0-.035.002-.052.003-.017 0-.035 0-.052.002l-.052.002h-.051l-.052.002H39.556V26.594H47.95l.051-.002h.052l.052-.003.052-.002.051-.003.052-.004.052-.004.051-.005.052-.005.052-.005.052-.007.052-.006.051-.008.052-.008.052-.009.052-.009.051-.01.052-.01.052-.011.052-.012.051-.013.052-.013.052-.014.052-.014.051-.015.052-.017.052-.016.052-.018.051-.018.052-.02a3.98 3.98 0 0 0 .259-.11l.052-.026a4.175 4.175 0 0 0 .258-.143 2.68 2.68 0 0 0 .26-.179 3.458 3.458 0 0 0 .206-.177 2.467 2.467 0 0 0 .57-.82 2.383 2.383 0 0 0-.052-1.93 2.277 2.277 0 0 0-.621-.77 3.035 3.035 0 0 0-.414-.285 3.263 3.263 0 0 0-.207-.109l-.052-.024-.052-.023-.052-.023a4.011 4.011 0 0 0-.051-.021l-.052-.021a2.913 2.913 0 0 0-.207-.074 3.92 3.92 0 0 0-.104-.032l-.051-.015a4.377 4.377 0 0 0-.052-.015l-.052-.013c-.017-.005-.034-.01-.052-.013l-.051-.013a4.33 4.33 0 0 0-.052-.012l-.052-.01-.052-.011-.051-.01-.052-.009-.052-.009-.052-.008-.051-.007-.052-.007-.052-.007-.052-.006-.052-.005-.051-.005-.052-.004-.048-.004v-.061l.048-.008.052-.008.051-.01.052-.009a2.79 2.79 0 0 0 .052-.01l.052-.012.052-.012.051-.012a3.915 3.915 0 0 0 .363-.113l.051-.02a2.933 2.933 0 0 0 .88-.54 2.418 2.418 0 0 0 .414-.507 2.4 2.4 0 0 0 .155-.31 2.31 2.31 0 0 0 .156-1.132 2.342 2.342 0 0 0-.156-.633 2.169 2.169 0 0 0-.31-.524 2.329 2.329 0 0 0-.725-.6 3.162 3.162 0 0 0-.258-.13l-.052-.022a3.32 3.32 0 0 0-.362-.13l-.052-.016-.052-.014a3.914 3.914 0 0 0-.052-.014l-.051-.013a3.924 3.924 0 0 0-.104-.024l-.052-.01-.052-.011-.051-.01-.052-.009-.052-.008-.051-.008-.052-.007-.052-.007-.052-.006-.051-.006-.052-.005-.052-.004-.052-.004-.051-.004-.052-.003-.02-.001-.032-.002-.052-.003-.051-.003-.052-.003-.052-.002-.052-.002-.051-.002-.052-.002h-.052l-.052-.002H39.556v-5.53a5.312 5.312 0 0 1 .63-2.504 4.81 4.81 0 0 1 .258-.43l.052-.077.052-.074a5.16 5.16 0 0 1 .103-.14l.052-.066.052-.064a4.38 4.38 0 0 1 .155-.181 5.27 5.27 0 0 1 .207-.219l.052-.05c.017-.018.034-.034.052-.05l.051-.049.052-.047.052-.046.052-.045a5.124 5.124 0 0 1 .155-.127l.052-.04.051-.04a6.062 6.062 0 0 1 .104-.076l.052-.036.051-.036.052-.035.052-.033.052-.034.051-.032.052-.031.052-.03c.017-.01.034-.021.052-.03l.051-.03.052-.028.052-.028.052-.027.051-.026.052-.025.052-.025.052-.024.051-.024.052-.022.052-.023.052-.021.051-.021.052-.02.052-.02.052-.019.051-.018.052-.018.052-.017.052-.017.051-.016.052-.015.052-.016.052-.014.051-.014.052-.013.052-.012.052-.013.051-.011.052-.011.052-.011.052-.01.052-.01.051-.008.052-.009.052-.008.051-.007.052-.007.052-.007.052-.006.051-.005.052-.005.052-.004.052-.004.051-.004c.018 0 .035-.002.052-.003l.052-.002.052-.002.051-.001.052-.001h.052l.013-.001H52.762z" fill="#54B230" />
  <path fill-rule="evenodd" clip-rule="evenodd" d="M9.888 23.977V10.825a5.313 5.313 0 0 1 .576-2.403 5.028 5.028 0 0 1 .258-.45l.052-.08.052-.075.051-.074.052-.07.052-.07.052-.066c.016-.022.034-.043.051-.064a5.516 5.516 0 0 1 .103-.123l.052-.058.052-.058.051-.055a4.688 4.688 0 0 1 .155-.157l.052-.05.052-.048.051-.047.052-.046.052-.045a6.74 6.74 0 0 1 .31-.245l.051-.038a5.84 5.84 0 0 1 .207-.14l.052-.034.051-.032.052-.032.052-.03.051-.03.052-.029.052-.029.051-.027.052-.027.052-.026.051-.026.052-.024c.017-.009.034-.017.052-.024l.051-.024.052-.023.052-.022.051-.022.052-.02.052-.02.051-.02.052-.02.052-.018.051-.018.052-.017.052-.017.051-.016.052-.015.052-.016.051-.014.052-.014.051-.013.052-.013.052-.012.052-.012.051-.01c.017-.005.034-.008.052-.012l.052-.01.051-.01.052-.008.051-.009.052-.008.052-.007.052-.007.051-.007.052-.006.052-.005.051-.005.052-.005.051-.004c.018 0 .035-.002.052-.003l.052-.003.051-.003.052-.002.052-.001.051-.001h.052l.052-.001H23.113v26.625a5.336 5.336 0 0 1-.353 1.906 5.167 5.167 0 0 1-.517 1.003 5.215 5.215 0 0 1-.31.424l-.052.064a6.11 6.11 0 0 1-.103.12l-.051.057-.052.056-.052.054-.052.053a4.176 4.176 0 0 1-.155.15l-.051.048-.052.046-.051.045-.052.043-.052.044-.052.041-.051.041-.052.04-.051.038-.052.038-.052.037-.051.036-.052.035-.052.034-.051.034c-.017.01-.035.02-.052.032l-.052.032-.051.03-.052.03-.052.03-.051.028-.052.028-.052.027-.051.027-.052.025-.052.026-.051.024-.052.024-.052.022-.051.023-.052.022-.052.02-.051.021-.052.02-.052.02-.051.018-.052.018-.052.017-.051.017-.052.017-.052.015-.051.015-.052.015-.052.014-.051.014-.052.012-.052.013-.051.012-.052.01c-.017.005-.034.009-.052.012l-.051.01-.052.01-.052.009-.051.008-.052.009-.052.007-.051.007-.052.007-.052.006-.051.006a4.31 4.31 0 0 1-.052.005l-.052.004-.051.005-.052.003-.052.003-.051.003-.052.002-.051.002-.052.001H17.8l-.048.001H9.89V26.228l.11.029.052.012.051.013.052.012.052.012.052.012.051.012.052.012.051.011.052.011.052.011.052.012.051.01.052.011.052.01.051.01.052.011.051.01.052.01.052.01.052.01.051.01.052.009.051.01.052.009.052.009.051.009.052.009.052.008.051.01.052.008.052.008.051.008.052.009.052.008.051.008.052.007.052.008.051.008.052.007.052.008.051.007.052.007.052.007.051.007.052.007.052.007.051.006.052.007.052.006.051.007.052.006.052.006.051.006.052.006.052.005.051.006.052.006.052.005.051.005.052.005.052.005.051.005.052.005.052.005.051.005.052.004.052.005.051.004.052.004.052.004.051.004.052.004.052.004.051.003.052.004.051.003.052.004.052.003.052.003.051.003.052.003.052.002.051.003.052.002.051.003.052.002.052.002.052.002.051.002.052.002.052.002.051.001.052.002h.051l.052.002.052.001.051.001h.052l.052.002h.103l.052.001h.361l.052-.002h.052l.051-.002h.052l.052-.002.051-.002.052-.001.052-.002.051-.001.052-.003.052-.002.051-.002.052-.002.052-.003.051-.003.052-.003.052-.003.051-.004.052-.003.052-.004.051-.004.052-.004.052-.004.051-.005.052-.004.052-.005.051-.005.052-.005.051-.006.052-.005.052-.006.052-.006.051-.006.052-.007.052-.007.051-.007.052-.007.051-.008.052-.007.052-.008.052-.008.051-.009.052-.008.052-.009.051-.01.052-.009.051-.01.052-.01.052-.01.052-.01.051-.011.052-.012.052-.012.051-.011.052-.013.051-.012.052-.013.052-.014.051-.013.052-.014.052-.014.051-.015.052-.015.052-.016.051-.016.052-.016.052-.017.051-.018.052-.017.052-.019.051-.018.052-.02.052-.02.051-.02.052-.02.052-.022.051-.021.052-.024.052-.023.051-.023.052-.025.052-.025.051-.026.052-.027.052-.027a4.247 4.247 0 0 0 .206-.119c.018-.01.035-.02.052-.032l.052-.032.051-.034.052-.035.052-.036.051-.037.052-.04a4.386 4.386 0 0 0 .207-.167l.051-.047a2.934 2.934 0 0 0 .31-.32 3.764 3.764 0 0 0 .207-.268 3.228 3.228 0 0 0 .31-.555 3.49 3.49 0 0 0 .206-.612 4.258 4.258 0 0 0 .104-.61c.017-.173.026-.35.026-.53v-6.178H17.439l-.04 6.179a3.258 3.258 0 0 1-.064.633 2.705 2.705 0 0 1-.207.605 2.341 2.341 0 0 1-.568.737 2.411 2.411 0 0 1-.62.39 2.973 2.973 0 0 1-.568.184l-.052.011a2.627 2.627 0 0 1-.103.02l-.052.009-.051.008-.052.006-.052.007-.051.006-.052.005a4.145 4.145 0 0 1-.155.01l-.052.003-.051.002h-.052l-.051.001h-.156l-.051-.002-.052-.001-.052-.002-.051-.002-.052-.002-.051-.003-.052-.003-.052-.003-.052-.004-.051-.004-.052-.004-.051-.005-.052-.005-.052-.005-.051-.006-.052-.005-.052-.007-.051-.006-.052-.007-.052-.007-.051-.008-.052-.007-.052-.008-.051-.009-.052-.008-.052-.009-.051-.01-.052-.009-.052-.01-.051-.01-.052-.01-.052-.01-.051-.012-.052-.011-.052-.012-.051-.012-.052-.012-.052-.012-.051-.013-.052-.013-.052-.013-.051-.014-.052-.013-.052-.014-.051-.015-.052-.015-.052-.014-.051-.016-.052-.015-.052-.016-.051-.016-.052-.016-.052-.017-.051-.016-.052-.017-.052-.018-.051-.017-.052-.018-.052-.018-.051-.018-.052-.019-.052-.019-.051-.019-.052-.02-.051-.019-.052-.02-.052-.02-.052-.02-.051-.02-.052-.021-.051-.021-.052-.022-.052-.021-.051-.022-.052-.022-.052-.022-.052-.023-.051-.022-.052-.023-.051-.023-.052-.024-.052-.023-.052-.024-.051-.024-.052-.024a17.49 17.49 0 0 1-.11-.053z" fill="#006CB9" />
  <path fill-rule="evenodd" clip-rule="evenodd" d="M24.834 17.705a5.15 5.15 0 0 0-.111.092v-6.972a5.308 5.308 0 0 1 .627-2.5 5.361 5.361 0 0 1 .362-.582l.051-.07.052-.069.052-.067.051-.063a5.179 5.179 0 0 1 .104-.123l.051-.059a5.471 5.471 0 0 1 .155-.166l.052-.053.052-.05.051-.05.052-.048.052-.048.051-.045.052-.045.052-.044a4.649 4.649 0 0 1 .155-.124l.051-.04a6.067 6.067 0 0 1 .259-.182l.051-.034.052-.033.052-.032.051-.032.052-.03c.017-.01.034-.021.052-.03l.051-.03.052-.028.052-.028.051-.027.052-.026.052-.025.051-.025.052-.024.052-.024.051-.023.052-.022.052-.021.051-.021.052-.02.052-.02.051-.02.052-.018.052-.018.051-.017.052-.017.052-.016.051-.015.052-.016.052-.014.051-.014.052-.013.052-.013.051-.012.052-.012.052-.01.051-.012.052-.01.052-.01.051-.008.052-.009.052-.008.051-.007.052-.007.052-.007.051-.006.052-.005.052-.005.051-.005a4.45 4.45 0 0 1 .052-.004l.051-.003.052-.003.052-.003.052-.001.051-.002L30 5.5h.052l.022-.001H37.948v26.625a5.333 5.333 0 0 1-.353 1.905 5.32 5.32 0 0 1-.517 1.004l-.052.078a6.14 6.14 0 0 1-.31.41 4.88 4.88 0 0 1-.103.12l-.052.057-.051.056-.052.054-.052.053a5.012 5.012 0 0 1-.155.15l-.051.048-.052.045-.052.046-.051.043-.052.044-.052.04-.051.042-.052.04-.052.038-.051.038-.052.037-.052.035-.051.036-.052.034-.052.033-.051.033-.052.032-.052.03-.051.03-.052.03-.052.028-.051.028-.052.027-.052.027-.051.025-.052.026-.052.024-.051.023-.052.023-.052.023-.051.021-.052.022-.052.02-.051.02-.052.02-.052.018-.051.018-.052.017-.052.017-.051.017-.052.015-.052.015-.051.015-.052.014-.052.014-.051.012-.052.013-.052.012-.051.01-.052.012-.052.01-.051.01-.052.009a4.285 4.285 0 0 1-.052.008l-.051.009-.052.007-.052.007-.051.007-.052.006-.052.006-.051.005-.052.005c-.017 0-.034.003-.052.004l-.051.003-.052.003-.052.003-.051.002-.052.002-.051.001h-.052l-.048.001H24.723V25.155a4.868 4.868 0 0 0 .214.173l.051.039a5.277 5.277 0 0 0 .155.11l.052.036.052.034.051.033a9.054 9.054 0 0 0 .104.065l.051.031.052.03.052.03.051.03.052.028.052.028.051.027.052.026.052.026.051.026.052.025.052.024.051.024.052.023.052.023.051.023.052.021.052.022.051.02.052.021.052.02.051.02.052.02.052.018.051.019.052.018.052.018.051.017.052.017.052.017.051.016.052.016.052.015.051.015.052.015.052.015.051.014.052.014.052.014.051.014.052.013.052.012.051.013.052.012.052.012.051.012.052.011.052.012.051.01.052.011.052.01.051.01.052.01.052.01.051.01.052.01.052.008.051.01.052.008.052.008.051.008.052.008.052.008.051.008.052.007.052.007.051.007.052.006.052.007.051.006.052.007.052.006.051.005.052.006.052.005.051.006.052.005.052.005.051.004.052.005.052.004.051.005.052.003.051.004.052.004.052.004.052.003.051.004.052.003.052.003.051.003.052.002.052.003.051.002.052.002.052.002.051.002.052.002.052.002.051.001.052.002.052.001.051.001.052.001.052.001h.051l.052.001h.052l.051.001h.362l.052-.001h.051l.052-.001.052-.002h.051l.052-.002h.052l.051-.002.052-.002.052-.001.051-.002.052-.002.051-.002.052-.002.052-.002.051-.002.026-.001.026-.001.052-.003.051-.003.052-.002.052-.004.051-.003.052-.003.052-.004.052-.003.051-.004.052-.004.051-.005.052-.004.052-.004.051-.005.052-.005.052-.005.051-.005.052-.005.052-.005.051-.006.052-.006.052-.006.051-.005.052-.006.052-.007.051-.006.052-.006.052-.007.051-.006.052-.007.052-.007.051-.007.052-.008.052-.007.051-.007.052-.008.052-.007.051-.008.052-.008.052-.008.051-.008.052-.008.052-.008.051-.008.052-.009.052-.009.051-.008.052-.01.052-.008.051-.009.052-.01.052-.008.051-.01.052-.009.052-.01.051-.01.052-.009.052-.01.051-.01.052-.01.052-.01.051-.01.052-.01.052-.01.051-.011.052-.01.052-.011.051-.011.052-.011.052-.011.051-.011.052-.011.052-.012.051-.011.052-.012.052-.012.051-.012.052-.012.052-.012.051-.012.052-.013v-2.252l-.052.025-.051.025-.052.025-.052.025-.051.025-.052.024-.052.025-.051.023-.052.024-.052.024-.051.023-.052.023-.052.022-.051.023-.052.022-.052.021-.051.022-.052.021-.052.021-.051.021-.052.02-.052.02-.051.02-.052.02-.052.02-.051.018-.052.019-.052.018-.051.019-.052.017-.052.018-.051.017-.052.017-.052.017-.051.016-.052.016-.052.016-.051.016-.052.015-.052.015-.051.014-.052.015-.052.014-.051.014-.052.013-.052.013-.051.013-.052.013-.052.012-.051.012-.052.012-.052.011-.051.011-.052.011-.052.01-.051.01-.052.011-.052.01-.051.01-.052.008-.052.01-.051.008-.052.008-.052.008-.051.008-.052.007-.052.007-.051.007-.052.007-.052.006-.051.006-.052.006-.051.006-.052.005-.052.005-.052.005-.051.004-.052.005-.031.002-.02.001-.052.004-.052.003-.052.003-.051.003-.052.002-.052.002-.051.001-.052.001-.052.001h-.206l-.052-.001-.051-.002-.052-.002-.052-.002-.052-.003-.051-.003-.052-.003-.052-.004-.051-.005-.052-.005-.051-.005-.052-.006-.052-.006-.052-.007-.051-.007-.052-.008a4.284 4.284 0 0 1-.052-.008l-.051-.009-.052-.01-.051-.009-.052-.01-.052-.011-.051-.012-.052-.012-.052-.013a7.802 7.802 0 0 1-.052-.014l-.051-.014-.052-.014-.051-.016-.052-.016a7.821 7.821 0 0 1-.103-.034L30 24.883l-.052-.019-.051-.02-.052-.02-.052-.022-.052-.022-.051-.024a4.085 4.085 0 0 1-.155-.076c-.017-.01-.035-.018-.052-.027a2.852 2.852 0 0 1-.051-.029l-.052-.03-.052-.03a2.483 2.483 0 0 1-.051-.033c-.018-.01-.035-.021-.052-.033l-.052-.035a2.662 2.662 0 0 1-.051-.036l-.052-.038a2.826 2.826 0 0 1-.103-.08l-.052-.043a3.783 3.783 0 0 1-.155-.14l-.052-.052a2.65 2.65 0 0 1-.155-.17 3.134 3.134 0 0 1-.62-1.16 3.892 3.892 0 0 1-.155-.807 4.963 4.963 0 0 1 .052-1.3 4.091 4.091 0 0 1 .103-.43 3.52 3.52 0 0 1 .362-.805 3.034 3.034 0 0 1 .413-.525l.052-.051a2.985 2.985 0 0 1 .155-.141l.052-.043.051-.041.052-.04.052-.037.051-.037.052-.035.052-.033a2.483 2.483 0 0 1 .103-.063l.052-.03.051-.028c.017-.01.035-.018.052-.027a3.571 3.571 0 0 1 .155-.076l.051-.024.052-.022.052-.022.052-.02c.017-.008.034-.014.051-.02l.052-.02a3.932 3.932 0 0 1 .103-.036l.052-.017a6.313 6.313 0 0 1 .103-.031l.052-.015.052-.014.051-.013c.017-.005.035-.01.052-.013l.052-.012.051-.012.052-.011.052-.01.051-.01.052-.01.052-.008.051-.009.052-.008.052-.007.051-.007.052-.006.052-.006.051-.005.052-.005.052-.004.051-.004.052-.004.052-.003.051-.003.052-.002.052-.002.051-.001.052-.002h.258l.052.002.051.002.052.001.052.003.051.002.052.003.052.003.051.004.02.001.032.003.052.004.051.004.052.005.052.005.052.005.051.005.052.006.051.006.052.007.052.006.051.007.052.007.052.007.051.008.052.008.052.008.051.009.052.008.052.01.051.009.052.01.052.01.051.01.052.01.052.01.051.012.052.011.052.012.051.012.052.012.052.013.051.012.052.014.052.013.051.014.052.014.052.014.051.014.052.015.052.016.051.015.052.016.052.016.051.016.052.017.052.017.051.017.052.018.052.018.051.018.052.018.052.02.051.018.052.02.052.02.051.02.052.02.052.02.051.02.052.022.052.021.051.022.052.022.052.022.051.023.052.023.052.023.051.023.052.024.052.024.051.024.052.024.052.025.051.024.052.026.052.025.051.026.052.025v-2.254l-.052-.013-.051-.012-.052-.012-.052-.012-.051-.012-.052-.012-.052-.011-.051-.012-.052-.011-.052-.012-.051-.01-.052-.012-.052-.01-.051-.011-.052-.011-.052-.01-.051-.011-.052-.01-.052-.01-.051-.011-.052-.01-.052-.01-.051-.01-.052-.01-.052-.01-.051-.01-.052-.009-.052-.009-.051-.01-.052-.009-.052-.009-.051-.009-.052-.009-.052-.008-.051-.009-.052-.009-.052-.008-.051-.008-.052-.008-.052-.009-.051-.008-.052-.008-.052-.008-.051-.007-.052-.008-.052-.007-.051-.008-.052-.007-.052-.007-.051-.007-.052-.007-.052-.007-.051-.006-.052-.007-.052-.006-.051-.007-.052-.006-.052-.006-.051-.006-.052-.005-.052-.006-.051-.006-.052-.005-.052-.005-.051-.005-.052-.005-.052-.005-.051-.005-.052-.004-.052-.004-.051-.005-.052-.004-.051-.003-.052-.004-.052-.004-.052-.003-.051-.003-.052-.003-.051-.003-.052-.003-.052-.002-.026-.002h-.026l-.051-.003-.052-.002-.052-.002-.051-.002-.052-.002-.052-.001-.051-.002-.052-.001-.052-.002-.051-.001-.052-.001-.051-.001-.052-.001h-.052l-.052-.002h-.155l-.051-.001h-.259l-.051.001h-.052l-.052.001-.051.001-.052.001-.051.001-.052.002-.052.001-.051.002-.052.001-.052.002-.052.002-.051.002-.052.002-.051.003-.052.002-.052.003-.051.003-.052.003-.052.003-.051.003-.052.004-.052.003-.052.004-.051.004-.052.004-.051.004-.052.005-.052.004-.051.005-.052.005-.052.005-.051.005-.052.006-.052.005-.051.006-.052.006-.052.006-.051.007-.052.006-.052.007-.051.007-.052.007-.052.007-.051.008-.052.007-.052.008-.051.009-.052.008-.052.008-.051.01-.052.008-.052.01-.051.01-.052.009-.052.01-.051.01-.052.01-.052.011-.051.011-.052.011-.052.012-.051.011-.052.012-.052.013-.051.012-.052.013-.052.013-.051.014-.052.013-.052.014-.051.015-.052.014-.052.015-.051.015-.052.016-.052.016-.051.016-.052.017-.052.017-.051.017-.052.018-.052.018-.051.019-.052.018-.052.02-.051.02-.052.02-.052.02-.051.021-.052.022-.052.022-.051.022-.052.023-.052.023-.051.024-.052.024-.052.025-.051.026-.052.026-.052.026-.051.028-.052.027-.052.029-.051.029-.052.03a6.375 6.375 0 0 0-.103.061l-.052.032-.052.033-.051.034-.052.034-.052.035-.051.036-.052.037-.052.038a6.989 6.989 0 0 0-.154.12z" fill="#E10238" />
</svg>