<svg 
  xmlns="http://www.w3.org/2000/svg" 
  width="64" 
  height="44" 
  fill="none"
  viewBox="0 0 64 42"
>
  <path fill="#FFFDF9" d="M0 0h63.724v44H0z" />
  <path fill-rule="evenodd" clip-rule="evenodd" d="M23.346 33.98v3.249h-.711v-.395c-.226.293-.568.476-1.033.476-.917 0-1.636-.713-1.636-1.706 0-.992.719-1.706 1.636-1.706.465 0 .807.184 1.033.476v-.394h.711zm-1.656.584c-.615 0-.992.47-.992 1.04 0 .571.377 1.04.992 1.04.588 0 .986-.448.986-1.04 0-.591-.397-1.04-.986-1.04zm25.689 1.04c0-.57.376-1.04.992-1.04.589 0 .985.449.985 1.04 0 .592-.396 1.04-.985 1.04-.616 0-.992-.469-.992-1.04zm2.649-2.93v4.555h-.712v-.395c-.226.293-.568.476-1.034.476-.917 0-1.636-.713-1.636-1.706 0-.992.72-1.706 1.636-1.706.466 0 .808.184 1.034.476v-1.7h.712zm-17.854 1.857c.458 0 .752.285.828.788h-1.698c.076-.47.363-.788.87-.788zm-1.615 1.073c0-1.013.67-1.706 1.629-1.706.916 0 1.546.693 1.553 1.706 0 .095-.007.184-.014.272h-2.429c.103.585.52.796.978.796.329 0 .678-.123.952-.34l.349.523c-.398.333-.849.456-1.341.456-.98 0-1.677-.673-1.677-1.707zm10.216 0c0-.57.377-1.04.993-1.04.588 0 .985.449.985 1.04 0 .592-.397 1.04-.985 1.04-.616 0-.993-.469-.993-1.04zm2.648-1.624v3.249h-.71v-.395c-.227.293-.569.476-1.034.476-.917 0-1.636-.713-1.636-1.706 0-.992.719-1.706 1.636-1.706.465 0 .807.184 1.033.476v-.394h.711zm-6.664 1.624c0 .986.69 1.706 1.745 1.706.493 0 .82-.108 1.176-.387l-.341-.571c-.267.19-.548.293-.856.293-.568-.008-.985-.415-.985-1.04 0-.626.417-1.034.985-1.041.308 0 .589.102.856.292l.341-.57c-.355-.28-.683-.388-1.176-.388-1.054 0-1.745.72-1.745 1.706zm8.307-1.23c.185-.285.452-.476.862-.476.144 0 .35.027.507.089l-.22.666a1.16 1.16 0 0 0-.444-.082c-.465 0-.698.299-.698.836v1.822h-.712v-3.25h.705v.395zm-18.203-.136c-.342-.224-.813-.34-1.333-.34-.829 0-1.362.394-1.362 1.04 0 .53.397.857 1.128.959l.336.047c.39.055.574.157.574.34 0 .252-.26.395-.745.395-.493 0-.848-.157-1.088-.34l-.335.55c.39.285.882.421 1.416.421.944 0 1.492-.441 1.492-1.06 0-.571-.431-.87-1.143-.972l-.335-.048c-.308-.04-.555-.101-.555-.319 0-.238.233-.38.623-.38.417 0 .822.156 1.02.278l.307-.571zm8.315.136c.184-.285.451-.476.862-.476.144 0 .35.027.507.089l-.22.666a1.16 1.16 0 0 0-.445-.082c-.465 0-.697.299-.697.836v1.822h-.712v-3.25h.705v.395zm-5.207-.394h-1.163v-.986h-.72v.986h-.663v.646h.663v1.482c0 .754.295 1.203 1.136 1.203.309 0 .664-.095.89-.252l-.205-.605a1.323 1.323 0 0 1-.63.184c-.356 0-.471-.218-.471-.544v-1.468h1.163v-.646zm-10.634 1.21v2.039h-.72V35.42c0-.551-.232-.857-.718-.857-.472 0-.8.3-.8.864v1.8h-.719v-1.807c0-.551-.239-.857-.711-.857-.487 0-.801.3-.801.864v1.8h-.719V33.98h.712v.4c.267-.38.609-.482.958-.482.5 0 .855.218 1.081.578.302-.456.732-.585 1.15-.578.794.007 1.287.524 1.287 1.291z" fill="#231F20" />
  <path d="M37.407 28.459h-10.78V9.216h10.78V28.46z" fill="#FF5F00" />
  <path d="M27.312 18.838c0-3.904 1.84-7.38 4.704-9.621A12.317 12.317 0 0 0 24.404 6.6c-6.804 0-12.318 5.479-12.318 12.238 0 6.759 5.514 12.238 12.318 12.238 2.873 0 5.517-.978 7.613-2.617-2.866-2.24-4.705-5.718-4.705-9.621z" fill="#EB001B" />
  <path d="M51.948 18.838c0 6.759-5.515 12.238-12.318 12.238a12.32 12.32 0 0 1-7.614-2.617c2.866-2.24 4.706-5.718 4.706-9.621 0-3.904-1.84-7.38-4.706-9.621A12.321 12.321 0 0 1 39.63 6.6c6.803 0 12.318 5.479 12.318 12.238z" fill="#F79E1B" />
</svg>