<svg 
  width="64" 
  height="44" 
  fill="none" 
  xmlns="http://www.w3.org/2000/svg"
  viewBox="0 0 64 42"
>
  <path fill="#FFFDF9" d="M0 0h63.724v44H0z" />
  <path fill-rule="evenodd" clip-rule="evenodd" d="m29.048 22.282.278-1.77-.619-.014h-2.95l2.05-13.056a.173.173 0 0 1 .058-.103.167.167 0 0 1 .109-.04h4.976c1.652 0 2.792.345 3.387 1.026.28.32.457.654.543 1.021.09.386.091.847.003 1.409l-.006.04v.36l.28.16c.234.125.42.268.564.432.239.273.393.62.458 1.032.068.423.046.927-.065 1.498-.127.656-.333 1.228-.611 1.695a3.48 3.48 0 0 1-.968 1.065c-.37.264-.808.463-1.304.591-.48.126-1.029.19-1.63.19h-.387c-.277 0-.546.1-.757.279a1.179 1.179 0 0 0-.395.707l-.029.16-.49 3.118-.022.115c-.006.036-.016.054-.031.066a.081.081 0 0 1-.05.019h-2.392z" fill="#28356A" />
  <path fill-rule="evenodd" clip-rule="evenodd" d="M37.42 10.837a8.578 8.578 0 0 1-.05.293c-.657 3.383-2.902 4.551-5.77 4.551h-1.459a.71.71 0 0 0-.7.603l-.96 6.11a.374.374 0 0 0 .369.433h2.59a.624.624 0 0 0 .614-.528l.026-.132.487-3.106.032-.17a.624.624 0 0 1 .615-.529h.387c2.509 0 4.473-1.022 5.047-3.982.24-1.236.116-2.268-.519-2.994-.192-.22-.43-.401-.709-.549z" fill="#298FC2" />
  <path fill-rule="evenodd" clip-rule="evenodd" d="M36.734 10.562a5.185 5.185 0 0 0-.638-.142 8.079 8.079 0 0 0-1.287-.094h-3.9a.624.624 0 0 0-.615.528l-.83 5.277-.024.153a.71.71 0 0 1 .701-.603h1.46c2.867 0 5.112-1.169 5.768-4.551.02-.1.037-.198.051-.293a3.485 3.485 0 0 0-.686-.275z" fill="#22284F" />
  <path fill-rule="evenodd" clip-rule="evenodd" d="M30.294 10.854a.622.622 0 0 1 .615-.528h3.9c.462 0 .893.03 1.287.095a5.038 5.038 0 0 1 .786.188c.193.064.373.14.539.228.195-1.25-.002-2.101-.675-2.872-.742-.849-2.082-1.212-3.796-1.212h-4.976a.712.712 0 0 0-.703.604L25.2 20.547c-.04.261.16.497.422.497h3.072l1.6-10.19zM14.387 25.873h-3.628a.505.505 0 0 0-.498.427l-1.468 9.341c-.029.184.113.35.3.35h1.732c.248 0 .46-.18.498-.427l.396-2.52a.504.504 0 0 1 .497-.427h1.149c2.39 0 3.769-1.161 4.129-3.462.162-1.007.007-1.798-.463-2.352-.515-.608-1.43-.93-2.644-.93zm.418 3.412c-.198 1.307-1.193 1.307-2.154 1.307h-.548l.384-2.441a.303.303 0 0 1 .299-.257h.25c.656 0 1.274 0 1.593.375.19.224.25.556.176 1.016zM25.324 29.172h-1.737a.303.303 0 0 0-.299.256l-.077.488-.121-.177c-.376-.548-1.215-.731-2.052-.731-1.92 0-3.56 1.46-3.879 3.508-.166 1.021.07 1.998.647 2.68.53.626 1.287.887 2.188.887 1.547 0 2.405-.999 2.405-.999l-.077.485a.303.303 0 0 0 .298.351h1.565a.505.505 0 0 0 .498-.427l.939-5.97a.302.302 0 0 0-.298-.351zm-2.421 3.395c-.168.996-.956 1.665-1.96 1.665-.505 0-.908-.162-1.167-.47-.257-.306-.354-.74-.273-1.226.157-.988.958-1.678 1.947-1.678.494 0 .895.164 1.159.475.264.313.37.751.294 1.234zM34.443 29.321h-1.745a.505.505 0 0 0-.418.222l-2.408 3.562-1.02-3.423a.506.506 0 0 0-.484-.36h-1.716a.304.304 0 0 0-.287.4l1.923 5.667-1.808 2.563a.304.304 0 0 0 .247.479h1.744c.165 0 .32-.081.414-.217l5.807-8.416a.303.303 0 0 0-.249-.477z" fill="#28356A" />
  <path fill-rule="evenodd" clip-rule="evenodd" d="M40.264 25.873h-3.629a.505.505 0 0 0-.497.427l-1.468 9.341c-.029.184.113.35.298.35h1.862c.173 0 .321-.126.348-.299l.417-2.648a.504.504 0 0 1 .497-.427h1.148c2.39 0 3.77-1.161 4.13-3.462.163-1.007.007-1.798-.463-2.352-.515-.608-1.43-.93-2.643-.93zm.418 3.412c-.198 1.307-1.192 1.307-2.155 1.307h-.547l.385-2.441a.301.301 0 0 1 .298-.257h.251c.655 0 1.273 0 1.593.375.19.224.248.556.175 1.016zM51.199 29.172h-1.736a.301.301 0 0 0-.299.256l-.077.488-.122-.177c-.376-.548-1.214-.731-2.05-.731-1.92 0-3.56 1.46-3.88 3.508-.165 1.021.07 1.998.647 2.68.53.626 1.287.887 2.189.887 1.546 0 2.404-.999 2.404-.999l-.077.485a.303.303 0 0 0 .3.351h1.564a.505.505 0 0 0 .497-.427l.94-5.97a.304.304 0 0 0-.3-.351zm-2.422 3.395c-.166.996-.955 1.665-1.96 1.665-.503 0-.908-.162-1.167-.47-.256-.306-.353-.74-.272-1.226.157-.988.957-1.678 1.947-1.678.493 0 .894.164 1.158.475.266.313.371.751.294 1.234zM53.102 26.13l-1.489 9.511c-.029.185.113.35.298.35h1.498c.248 0 .46-.18.498-.427l1.468-9.34a.303.303 0 0 0-.298-.351h-1.676a.303.303 0 0 0-.299.257z" fill="#298FC2" />
</svg>