<svg 
  xmlns="http://www.w3.org/2000/svg" 
  width="64" 
  height="44" 
  fill="none"
  viewBox="0 0 64 42"
>
  <path fill="#FFFDF9" d="M0 0h63.724v44H0z" />
  <path fill-rule="evenodd" clip-rule="evenodd" d="m54.572 6.61-12.144-.004h-.003l-.027.002c-1.669.05-3.747 1.374-4.125 3.006L32.53 34.747c-.379 1.648.651 2.988 2.307 3.013h12.758c1.631-.08 3.216-1.389 3.588-3.002l5.743-25.134c.385-1.664-.67-3.015-2.354-3.015z" fill="#01798A" />
  <path fill-rule="evenodd" clip-rule="evenodd" d="m32.53 34.747 5.743-25.133c.378-1.632 2.456-2.956 4.124-3.006l-4.828-.003-8.7-.002c-1.672.034-3.777 1.366-4.155 3.01l-5.745 25.134c-.38 1.648.65 2.988 2.306 3.013h13.562c-1.656-.025-2.686-1.365-2.307-3.013" fill="#024381" />
  <path fill-rule="evenodd" clip-rule="evenodd" d="m18.969 34.747 5.744-25.133c.379-1.645 2.484-2.977 4.157-3.011L17.725 6.6c-1.682 0-3.839 1.348-4.224 3.014L7.758 34.747a3.115 3.115 0 0 0-.066.451v.466c.112 1.201 1.04 2.075 2.372 2.096h11.212c-1.655-.025-2.686-1.365-2.306-3.013z" fill="#DD0228" />
  <path fill-rule="evenodd" clip-rule="evenodd" d="M29.105 24.917h.21c.194 0 .325-.064.386-.192l.548-.81h1.468l-.307.533h1.76l-.223.817h-2.094c-.241.36-.538.528-.895.508h-1.09l.237-.856zm-.241 1.172h3.855l-.246.888h-1.55l-.237.857h1.509l-.246.888H30.44l-.35 1.267c-.087.211.027.306.34.285h1.23l-.228.825h-2.36c-.448 0-.602-.253-.461-.76l.448-1.617h-.965l.245-.888h.965l.236-.857h-.921l.245-.888zm6.153-2.18-.06.519s.727-.54 1.387-.54h2.44l-.933 3.342c-.077.382-.409.572-.995.572h-2.767l-.648 2.346c-.037.126.016.19.155.19h.545l-.2.729h-1.384c-.531 0-.752-.158-.665-.476l1.832-6.683h1.293zm2.067.944h-2.179l-.26.901s.363-.259.969-.268c.604-.01 1.295 0 1.295 0l.175-.633zm-.79 2.091c.162.022.252-.041.263-.19l.133-.475h-2.182l-.183.666h1.97zm-1.471 1.08h1.258l-.024.538h.335c.17 0 .253-.053.253-.159l.1-.348h1.044l-.14.507c-.117.424-.43.644-.939.666h-.67l-.003.92c-.012.148.123.223.4.223h.63l-.203.728h-1.51c-.424.02-.632-.18-.627-.603l.096-2.472zM19.584 19.456c-.17.827-.566 1.462-1.179 1.912-.608.444-1.392.666-2.351.666-.903 0-1.566-.227-1.988-.682-.293-.324-.439-.735-.439-1.232 0-.206.025-.426.075-.664l1.022-4.877h1.544l-1.008 4.822a1.54 1.54 0 0 0-.042.37c-.002.246.06.449.186.607.183.234.48.35.893.35.475 0 .867-.114 1.17-.346.305-.23.503-.556.592-.981l1.012-4.822h1.537l-1.024 4.877M26.07 17.538h1.21l-.948 4.352h-1.207l.945-4.352zm.38-1.586h1.221l-.228 1.056h-1.22l.228-1.056zM28.35 21.558c-.316-.299-.476-.702-.477-1.214a3.182 3.182 0 0 1 .064-.613c.143-.707.449-1.269.92-1.683.47-.415 1.036-.624 1.7-.624.543 0 .974.15 1.29.45.315.303.473.71.473 1.23 0 .088-.007.19-.018.301-.014.112-.031.22-.05.325-.14.697-.445 1.252-.916 1.658-.47.41-1.036.614-1.695.614-.546 0-.975-.147-1.29-.444zm2.305-.861c.213-.229.366-.575.46-1.037.013-.072.026-.147.033-.222.008-.074.011-.143.011-.206 0-.268-.069-.477-.208-.624-.138-.149-.334-.222-.587-.222-.335 0-.608.116-.822.35-.216.232-.368.585-.465 1.054a5.806 5.806 0 0 0-.034.215c-.007.072-.01.14-.008.2 0 .268.069.473.208.619.138.146.333.218.59.218.336 0 .609-.115.822-.345M40.168 24.954l.291-1.015h1.475l-.064.372s.754-.372 1.297-.372h1.823l-.29 1.015h-.287l-1.375 4.788h.287l-.273.95h-.287l-.12.413h-1.427l.119-.412h-2.818l.275-.951h.282l1.377-4.788h-.285zm1.59 0-.375 1.296s.643-.244 1.196-.313c.122-.453.282-.983.282-.983H41.76zm-.548 1.903-.377 1.357s.712-.346 1.2-.375c.141-.525.282-.982.282-.982H41.21zm.276 2.885.282-.985h-1.1l-.285.985h1.103zm3.566-5.866h1.386l.06.506c-.01.129.067.19.232.19h.245l-.248.857h-1.02c-.388.02-.588-.127-.607-.444l-.048-1.11zm-.406 1.839h4.49l-.263.92h-1.43l-.245.855h1.428l-.265.92h-1.59l-.36.538h.778l.18 1.078c.021.107.117.159.282.159h.241l-.254.888h-.855c-.444.021-.673-.126-.692-.443l-.206-.985-.709 1.048c-.167.296-.425.434-.772.412h-1.307l.254-.888h.408c.167 0 .307-.073.432-.222l1.11-1.586h-1.43l.264-.919h1.551l.247-.855H44.38l.265-.92zM21.007 17.536h1.09l-.124.629.157-.18c.353-.374.783-.56 1.29-.56.459 0 .79.132.997.398.205.265.26.632.164 1.102l-.6 2.966h-1.122l.543-2.688c.056-.278.04-.485-.046-.618-.085-.134-.248-.2-.483-.2-.288 0-.531.09-.729.266-.198.178-.33.425-.394.739l-.5 2.501h-1.123l.88-4.355M33.516 17.536h1.092l-.124.629.154-.18a1.71 1.71 0 0 1 1.29-.56c.46 0 .791.132.998.398.203.265.262.632.162 1.102l-.598 2.966h-1.123l.543-2.688c.056-.278.04-.485-.045-.618-.088-.134-.248-.2-.482-.2-.289 0-.53.09-.73.266-.199.178-.33.425-.393.739l-.502 2.501h-1.122l.88-4.355M38.912 14.837h3.17c.609 0 1.08.136 1.404.405.322.271.484.66.484 1.168v.016c0 .096-.007.205-.016.323a4.722 4.722 0 0 1-.062.358c-.14.671-.464 1.211-.964 1.62-.503.408-1.098.614-1.783.614h-1.7l-.525 2.55h-1.472l1.464-7.054m.792 3.277h1.41c.367 0 .659-.084.871-.251.211-.17.35-.427.428-.776l.03-.177c.004-.05.01-.101.01-.15 0-.25-.09-.431-.27-.545-.18-.115-.461-.17-.852-.17h-1.197l-.43 2.07M50.556 22.733c-.465.979-.908 1.55-1.168 1.814-.261.263-.777.873-2.021.827l.107-.747c1.047-.319 1.612-1.756 1.935-2.392l-.384-4.687.809-.01h.679l.073 2.94 1.273-2.94h1.288l-2.59 5.195M46.953 17.892l-.512.348c-.535-.414-1.023-.67-1.966-.238-1.284.589-2.357 5.106 1.179 3.618l.201.236 1.391.035.913-4.104-1.206.105m-.79 2.243c-.224.652-.723 1.083-1.114.96-.39-.12-.53-.748-.304-1.401.223-.654.726-1.083 1.113-.96.391.12.532.748.304 1.401" fill="#FFFDF9" />
  <path fill-rule="evenodd" clip-rule="evenodd" d="m42.425 6.614-4.856-.01 4.829.021c.009 0 .018-.01.027-.01" fill="#E02F41" />
  <path fill-rule="evenodd" clip-rule="evenodd" d="m37.57 6.63-8.634-.03a.18.18 0 0 0-.066.02l8.7.01" fill="#2E4F7D" />
</svg>