<svg 
  xmlns="http://www.w3.org/2000/svg" 
  width="64" 
  height="44" 
  fill="none"
  viewBox="0 0 64 42"
>
  <path fill="#FFFDF9" d="M0 0h63.724v44H0z"/>
  <path d="M28.293 30.177h-4.242l2.653-15.401h4.242l-2.653 15.4zM43.673 15.152c-.837-.311-2.164-.655-3.805-.655-4.19 0-7.14 2.097-7.159 5.095-.034 2.212 2.113 3.44 3.719 4.178 1.641.753 2.2 1.245 2.2 1.917-.018 1.032-1.327 1.508-2.549 1.508-1.694 0-2.601-.246-3.98-.82l-.559-.246-.594 3.457c.995.426 2.829.804 4.732.82 4.452 0 7.35-2.064 7.384-5.26.017-1.753-1.117-3.096-3.561-4.194-1.484-.704-2.393-1.18-2.393-1.9.018-.656.769-1.327 2.444-1.327a7.612 7.612 0 0 1 3.16.59l.384.163.577-3.326z" fill="#15195A"/>
  <path fill-rule="evenodd" clip-rule="evenodd" d="M51.267 14.776h3.282l3.422 15.4h-3.928s-.384-1.77-.506-2.31H48.09l-.89 2.31h-4.452l6.302-14.122c.436-1 1.205-1.278 2.217-1.278zm-.262 5.636s-1.344 3.424-1.693 4.309h3.526c-.174-.77-.978-4.457-.978-4.457l-.296-1.327c-.125.342-.306.812-.428 1.129-.082.214-.138.359-.13.346zM5.668 14.776h6.826c.925.032 1.676.31 1.92 1.294l1.484 7.076v.002l.454 2.13 4.155-10.502h4.486L18.325 30.16h-4.487l-3.781-13.382c-1.305-.716-2.794-1.291-4.459-1.691l.07-.311z" fill="#15195A"/>
</svg>