<svg width="124" height="46" fill="none" xmlns="http://www.w3.org/2000/svg" viewBox="0 0 123 45">
<g clip-path="url(#clip0_64_131)">
<rect y="4" width="37" height="37" rx="6" fill="#5D0EC0"/>
<path d="M7.92857 9.28571V22.5C7.92857 27.7857 10.5714 30.4286 13.2143 30.4286C15.8571 30.4286 18.5 27.7857 18.5 22.5V9.28571" stroke="white" stroke-width="5" stroke-linecap="round"/>
<path d="M18.5 14.5714V27.7857C18.5 33.0714 21.1429 35.7143 23.7857 35.7143C26.4286 35.7143 29.0714 33.0714 29.0714 27.7857V14.5714" stroke="white" stroke-width="5" stroke-linecap="round"/>
<path opacity="0.8" d="M29.0714 11.9286V25.1428C29.0714 30.4286 31.7143 33.0714 34.3571 33.0714C37 33.0714 39.6429 30.4286 39.6429 25.1428V11.9286" stroke="white" stroke-width="5" stroke-linecap="round"/>
</g>
<path d="M52.2486 5.19885V22.6534H48.5582V5.19885H52.2486Z" fill="#5D0EC0"/>
<path d="M58.0473 15.0852V22.6534H54.4166V9.56249H57.8768V11.8721H58.0303C58.32 11.1108 58.8058 10.5085 59.4876 10.0653C60.1695 9.61646 60.9962 9.39203 61.9678 9.39203C62.8768 9.39203 63.6695 9.5909 64.3456 9.98862C65.0217 10.3864 65.5473 10.9545 65.9223 11.6932C66.2973 12.4261 66.4848 13.3011 66.4848 14.3182V22.6534H62.8541V14.9659C62.8598 14.1648 62.6553 13.5398 62.2405 13.0909C61.8257 12.6364 61.2547 12.4091 60.5274 12.4091C60.0388 12.4091 59.607 12.5142 59.232 12.7244C58.8626 12.9346 58.5729 13.2415 58.3626 13.6449C58.1581 14.0426 58.053 14.5227 58.0473 15.0852Z" fill="#5D0EC0"/>
<path d="M79.4384 13.2954L76.1145 13.5C76.0577 13.2159 75.9355 12.9602 75.748 12.7329C75.5605 12.5 75.3134 12.3153 75.0065 12.179C74.7054 12.0369 74.3446 11.9659 73.9241 11.9659C73.3616 11.9659 72.8872 12.0852 72.5009 12.3239C72.1145 12.5568 71.9213 12.8693 71.9213 13.2614C71.9213 13.5739 72.0463 13.8381 72.2963 14.054C72.5463 14.2699 72.9753 14.4432 73.5832 14.5739L75.9526 15.0511C77.2253 15.3125 78.1741 15.7329 78.7991 16.3125C79.4241 16.892 79.7366 17.6534 79.7366 18.5966C79.7366 19.4545 79.4838 20.2074 78.9781 20.8551C78.4781 21.5028 77.7906 22.0085 76.9156 22.3721C76.0463 22.7301 75.0435 22.9091 73.9071 22.9091C72.1741 22.9091 70.7935 22.5483 69.7651 21.8267C68.7423 21.0994 68.1429 20.1108 67.9668 18.8608L71.5378 18.6733C71.6457 19.2017 71.9071 19.6051 72.3219 19.8835C72.7366 20.1562 73.2679 20.2926 73.9156 20.2926C74.552 20.2926 75.0634 20.1704 75.4497 19.9261C75.8418 19.6761 76.0406 19.3551 76.0463 18.9631C76.0406 18.6335 75.9014 18.3636 75.6287 18.1534C75.356 17.9375 74.9355 17.7727 74.3673 17.6591L72.1003 17.2074C70.8219 16.9517 69.8702 16.5085 69.2452 15.8778C68.6259 15.2471 68.3162 14.4432 68.3162 13.4659C68.3162 12.625 68.5435 11.9006 68.998 11.2926C69.4582 10.6846 70.1031 10.2159 70.9327 9.88635C71.7679 9.55681 72.7452 9.39203 73.8645 9.39203C75.5179 9.39203 76.819 9.74146 77.7679 10.4403C78.7224 11.1392 79.2793 12.0909 79.4384 13.2954Z" fill="#5D0EC0"/>
<path d="M81.2229 22.6534V9.56249H84.8535V22.6534H81.2229ZM83.0467 7.87499C82.507 7.87499 82.0439 7.69601 81.6575 7.33805C81.2768 6.97442 81.0865 6.53976 81.0865 6.03408C81.0865 5.53408 81.2768 5.1051 81.6575 4.74715C82.0439 4.38351 82.507 4.20169 83.0467 4.20169C83.5865 4.20169 84.0467 4.38351 84.4274 4.74715C84.8138 5.1051 85.007 5.53408 85.007 6.03408C85.007 6.53976 84.8138 6.97442 84.4274 7.33805C84.0467 7.69601 83.5865 7.87499 83.0467 7.87499Z" fill="#5D0EC0"/>
<path d="M92.8597 27.8352C91.6835 27.8352 90.675 27.6733 89.8341 27.3494C88.9989 27.0312 88.3341 26.5966 87.8398 26.0454C87.3455 25.4943 87.0244 24.875 86.8767 24.1875L90.2347 23.7358C90.3369 23.9971 90.4989 24.2415 90.7205 24.4687C90.942 24.696 91.2347 24.8778 91.5983 25.0142C91.9676 25.1562 92.4165 25.2273 92.9449 25.2273C93.7347 25.2273 94.3852 25.0341 94.8966 24.6477C95.4136 24.267 95.6722 23.6278 95.6722 22.7301V20.3352H95.5187C95.3597 20.6989 95.121 21.0426 94.8028 21.3665C94.4847 21.6903 94.0756 21.9545 93.5756 22.1591C93.0756 22.3636 92.479 22.4659 91.7858 22.4659C90.8028 22.4659 89.908 22.2386 89.1011 21.7841C88.3 21.3239 87.6608 20.6221 87.1835 19.679C86.7119 18.7301 86.4761 17.5312 86.4761 16.0824C86.4761 14.5994 86.7176 13.3608 87.2006 12.3665C87.6835 11.3721 88.3256 10.6278 89.1267 10.1335C89.9335 9.63919 90.817 9.39203 91.7773 9.39203C92.5102 9.39203 93.1239 9.51703 93.6182 9.76703C94.1125 10.0114 94.5102 10.3182 94.8114 10.6875C95.1182 11.0511 95.354 11.4091 95.5187 11.7614H95.6551V9.56249H99.2602V22.7812C99.2602 23.8949 98.9875 24.8267 98.442 25.5767C97.8966 26.3267 97.1409 26.8892 96.175 27.2642C95.2148 27.6449 94.1097 27.8352 92.8597 27.8352ZM92.9364 19.7386C93.5216 19.7386 94.0159 19.5937 94.4193 19.304C94.8284 19.0085 95.1409 18.5881 95.3568 18.0426C95.5784 17.4915 95.6892 16.8324 95.6892 16.0653C95.6892 15.2983 95.5813 14.6335 95.3653 14.071C95.1494 13.5028 94.8369 13.0625 94.4278 12.75C94.0188 12.4375 93.5216 12.2812 92.9364 12.2812C92.3398 12.2812 91.8369 12.4432 91.4278 12.767C91.0188 13.0852 90.7091 13.5284 90.4989 14.0966C90.2886 14.6648 90.1835 15.321 90.1835 16.0653C90.1835 16.821 90.2886 17.4744 90.4989 18.0256C90.7148 18.571 91.0244 18.9943 91.4278 19.2954C91.8369 19.5909 92.3398 19.7386 92.9364 19.7386Z" fill="#5D0EC0"/>
<path d="M104.98 15.0852V22.6534H101.349V5.19885H104.878V11.8721H105.031C105.327 11.0994 105.804 10.4943 106.463 10.0568C107.122 9.61362 107.949 9.39203 108.943 9.39203C109.852 9.39203 110.645 9.5909 111.321 9.98862C112.003 10.3807 112.531 10.946 112.906 11.6846C113.287 12.4176 113.474 13.2954 113.469 14.3182V22.6534H109.838V14.9659C109.844 14.1591 109.639 13.5312 109.224 13.0824C108.815 12.6335 108.241 12.4091 107.503 12.4091C107.009 12.4091 106.571 12.5142 106.19 12.7244C105.815 12.9346 105.52 13.2415 105.304 13.6449C105.094 14.0426 104.986 14.5227 104.98 15.0852Z" fill="#5D0EC0"/>
<path d="M122.489 9.56249V12.2898H114.606V9.56249H122.489ZM116.395 6.42612H120.026V18.6307C120.026 18.9659 120.077 19.2273 120.179 19.4148C120.282 19.5966 120.424 19.7244 120.606 19.7983C120.793 19.8721 121.009 19.9091 121.253 19.9091C121.424 19.9091 121.594 19.8949 121.765 19.8665C121.935 19.8324 122.066 19.8068 122.157 19.7898L122.728 22.4915C122.546 22.5483 122.29 22.6136 121.961 22.6875C121.631 22.767 121.231 22.8153 120.759 22.8324C119.884 22.8665 119.117 22.75 118.458 22.4829C117.804 22.2159 117.296 21.8011 116.932 21.2386C116.569 20.6761 116.39 19.9659 116.395 19.1079V6.42612Z" fill="#5D0EC0"/>
<path d="M48 40.6534V31.9261H51.196C51.8153 31.9261 52.3281 32.0284 52.7344 32.233C53.1406 32.4347 53.4446 32.7088 53.6463 33.0554C53.848 33.3992 53.9489 33.7869 53.9489 34.2188C53.9489 34.5824 53.8821 34.8892 53.7486 35.1392C53.6151 35.3864 53.4361 35.5852 53.2116 35.7358C52.9901 35.8835 52.7457 35.9915 52.4787 36.0597V36.1449C52.7685 36.1591 53.0511 36.2529 53.3267 36.4261C53.6051 36.5966 53.8352 36.8395 54.017 37.1548C54.1989 37.4702 54.2898 37.8537 54.2898 38.3054C54.2898 38.7514 54.1847 39.152 53.9744 39.5071C53.767 39.8594 53.446 40.1392 53.0114 40.3466C52.5767 40.5511 52.0213 40.6534 51.3452 40.6534H48ZM49.3168 39.5242H51.2173C51.848 39.5242 52.2997 39.402 52.5724 39.1577C52.8452 38.9134 52.9815 38.608 52.9815 38.2415C52.9815 37.9659 52.9119 37.7131 52.7727 37.483C52.6335 37.2529 52.4347 37.0696 52.1761 36.9332C51.9205 36.7969 51.6165 36.7287 51.2642 36.7287H49.3168V39.5242ZM49.3168 35.7017H51.081C51.3764 35.7017 51.642 35.6449 51.8778 35.5313C52.1165 35.4176 52.3054 35.2585 52.4446 35.054C52.5866 34.8466 52.6577 34.6023 52.6577 34.321C52.6577 33.9602 52.5313 33.6577 52.2784 33.4134C52.0256 33.169 51.6378 33.0469 51.1151 33.0469H49.3168V35.7017Z" fill="#90A1B9"/>
<path d="M58.5064 40.7855C57.8928 40.7855 57.3572 40.6449 56.8999 40.3636C56.4425 40.0824 56.0874 39.6889 55.8345 39.1832C55.5817 38.6776 55.4553 38.0867 55.4553 37.4105C55.4553 36.7315 55.5817 36.1378 55.8345 35.6293C56.0874 35.1207 56.4425 34.7259 56.8999 34.4446C57.3572 34.1634 57.8928 34.0227 58.5064 34.0227C59.12 34.0227 59.6555 34.1634 60.1129 34.4446C60.5703 34.7259 60.9254 35.1207 61.1783 35.6293C61.4311 36.1378 61.5575 36.7315 61.5575 37.4105C61.5575 38.0867 61.4311 38.6776 61.1783 39.1832C60.9254 39.6889 60.5703 40.0824 60.1129 40.3636C59.6555 40.6449 59.12 40.7855 58.5064 40.7855ZM58.5107 39.7159C58.9084 39.7159 59.2379 39.6108 59.4993 39.4006C59.7607 39.1904 59.9538 38.9105 60.0788 38.5611C60.2067 38.2117 60.2706 37.8267 60.2706 37.4063C60.2706 36.9886 60.2067 36.6051 60.0788 36.2557C59.9538 35.9034 59.7607 35.6207 59.4993 35.4077C59.2379 35.1946 58.9084 35.0881 58.5107 35.0881C58.1101 35.0881 57.7777 35.1946 57.5135 35.4077C57.2521 35.6207 57.0575 35.9034 56.9297 36.2557C56.8047 36.6051 56.7422 36.9886 56.7422 37.4063C56.7422 37.8267 56.8047 38.2117 56.9297 38.5611C57.0575 38.9105 57.2521 39.1904 57.5135 39.4006C57.7777 39.6108 58.1101 39.7159 58.5107 39.7159Z" fill="#90A1B9"/>
<path d="M64.8846 40.7983C64.4698 40.7983 64.0948 40.7216 63.7596 40.5682C63.4244 40.4119 63.1587 40.1861 62.9627 39.8906C62.7695 39.5952 62.6729 39.233 62.6729 38.804C62.6729 38.4347 62.744 38.1307 62.886 37.8921C63.0281 37.6534 63.2198 37.4645 63.4613 37.3253C63.7028 37.1861 63.9727 37.081 64.271 37.01C64.5692 36.9389 64.8732 36.885 65.1829 36.848C65.5749 36.8026 65.8931 36.7656 66.1374 36.7372C66.3817 36.706 66.5593 36.6563 66.6701 36.5881C66.7809 36.5199 66.8363 36.4091 66.8363 36.2557V36.2259C66.8363 35.8537 66.7312 35.5654 66.521 35.3608C66.3136 35.1563 66.0039 35.054 65.592 35.054C65.163 35.054 64.8249 35.1492 64.5778 35.3395C64.3335 35.527 64.1644 35.7358 64.0707 35.9659L62.8732 35.6932C63.0153 35.2955 63.2227 34.9744 63.4954 34.7301C63.771 34.483 64.0877 34.304 64.4457 34.1932C64.8036 34.0796 65.18 34.0227 65.5749 34.0227C65.8363 34.0227 66.1133 34.054 66.4059 34.1165C66.7013 34.1761 66.9769 34.2869 67.2326 34.4489C67.4911 34.6108 67.7028 34.8423 67.8675 35.1435C68.0323 35.4418 68.1147 35.8296 68.1147 36.3068V40.6534H66.8704V39.7585H66.8192C66.7369 39.9233 66.6133 40.0852 66.4485 40.2443C66.2837 40.4034 66.0721 40.5355 65.8136 40.6406C65.555 40.7458 65.2454 40.7983 64.8846 40.7983ZM65.1616 39.7756C65.5138 39.7756 65.815 39.706 66.065 39.5668C66.3178 39.4276 66.5096 39.2457 66.6403 39.0213C66.7738 38.794 66.8406 38.5511 66.8406 38.2926V37.4489C66.7951 37.4943 66.707 37.5369 66.5763 37.5767C66.4485 37.6136 66.3022 37.6463 66.1374 37.6747C65.9727 37.7003 65.8121 37.7244 65.6559 37.7472C65.4996 37.7671 65.369 37.7841 65.2638 37.7983C65.0167 37.8296 64.7908 37.8821 64.5863 37.956C64.3846 38.0298 64.2227 38.1364 64.1005 38.2756C63.9812 38.4119 63.9215 38.5938 63.9215 38.821C63.9215 39.1364 64.038 39.375 64.271 39.5369C64.5039 39.696 64.8008 39.7756 65.1616 39.7756Z" fill="#90A1B9"/>
<path d="M69.8118 40.6534V34.108H71.0433V35.1477H71.1115C71.2308 34.7955 71.4411 34.5185 71.7422 34.3168C72.0462 34.1122 72.3899 34.01 72.7734 34.01C72.853 34.01 72.9467 34.0128 73.0547 34.0185C73.1655 34.0242 73.2521 34.0313 73.3146 34.0398V35.2585C73.2635 35.2443 73.1726 35.2287 73.0419 35.2117C72.9112 35.1918 72.7805 35.1818 72.6499 35.1818C72.3487 35.1818 72.0803 35.2457 71.8445 35.3736C71.6115 35.4986 71.4268 35.6733 71.2905 35.8977C71.1541 36.1193 71.0859 36.3722 71.0859 36.6563V40.6534H69.8118Z" fill="#90A1B9"/>
<path d="M76.6332 40.7813C76.1048 40.7813 75.6332 40.6463 75.2184 40.3764C74.8065 40.1037 74.4826 39.7159 74.2468 39.2131C74.0138 38.7074 73.8974 38.1009 73.8974 37.3935C73.8974 36.6861 74.0153 36.081 74.2511 35.5781C74.4897 35.0753 74.8164 34.6904 75.2312 34.4233C75.646 34.1563 76.1161 34.0227 76.6417 34.0227C77.0479 34.0227 77.3746 34.0909 77.6218 34.2273C77.8718 34.3608 78.065 34.5171 78.2013 34.696C78.3406 34.875 78.4485 35.0327 78.5252 35.169H78.6019V31.9261H79.8761V40.6534H78.6317V39.635H78.5252C78.4485 39.7742 78.3377 39.9333 78.1928 40.1122C78.0508 40.2912 77.8548 40.4475 77.6048 40.581C77.3548 40.7145 77.0309 40.7813 76.6332 40.7813ZM76.9144 39.6946C77.2809 39.6946 77.5906 39.598 77.8434 39.4048C78.0991 39.2088 78.2923 38.9375 78.4229 38.5909C78.5565 38.2443 78.6232 37.8409 78.6232 37.3807C78.6232 36.9261 78.5579 36.5284 78.4272 36.1875C78.2965 35.8466 78.1048 35.581 77.8519 35.3906C77.5991 35.2003 77.2866 35.1051 76.9144 35.1051C76.5309 35.1051 76.2113 35.2046 75.9556 35.4034C75.6999 35.6023 75.5067 35.8736 75.3761 36.2173C75.2482 36.5611 75.1843 36.9489 75.1843 37.3807C75.1843 37.8182 75.2496 38.2117 75.3803 38.5611C75.511 38.9105 75.7042 39.1875 75.9599 39.3921C76.2184 39.5938 76.5366 39.6946 76.9144 39.6946Z" fill="#90A1B9"/>
<defs>
<clipPath id="clip0_64_131">
<rect y="4" width="37" height="37" rx="6" fill="white"/>
</clipPath>
</defs>
</svg>
