<svg id="Layer_1" data-name="Layer 1" xmlns="http://www.w3.org/2000/svg" viewBox="0 0 677.05 117.58"><path d="M181.74,368.46H168.89a44.51,44.51,0,0,0-64.11,0H91.93c9.6-13.94,26.79-23.23,44.91-23.23C155.26,345.24,172.45,354.84,181.74,368.46Z" transform="translate(-45.47 -325.21)" style="fill:#ed1c24"/><path d="M639.17,368.93a26.74,26.74,0,0,0-16.1,5.11,3,3,0,0,0-1.55,2.32,2.39,2.39,0,0,0,2.48,2.32c2.79,0,6.5-2.48,10.38-2.48,3.56,0,4.49,2.48,4.65,2.94.15-1.7,1.55-5.11,4.65-9.91A36,36,0,0,0,639.17,368.93Zm15.64,5.88a2.21,2.21,0,0,0-2.17,2.17c0,1.08.77,2.32,1.86,3.87,1.55,2,4,5.11,4,7.9a4.19,4.19,0,0,1-1.7,3.41,6.34,6.34,0,0,1,1.7-.16,42.88,42.88,0,0,1,9.14,1.55,27,27,0,0,0-10.84-17.81A2.63,2.63,0,0,0,654.81,374.81ZM613,384.57C611.3,388,608.2,396,611.3,405c.62,2,2,2.48,3.1,2.17,1.55-.46,2-2.17,1.86-4.8-.15-3.41-.46-9,3.56-10.22a2.3,2.3,0,0,1,.93-.16C619.19,391.23,616.56,388.59,613,384.57Zm26-3.72c-.46,2.48-3.1,5.27-7,8.05-4.34,3.1-7.28,3.87-9.45,3.56,2.17,1.24,4,4.49,5.57,9a18.08,18.08,0,0,1,1.24,6.19,6.93,6.93,0,0,1-.77,3.41c1.86-1.7,5.57-2.48,10.37-2.48,5.26,0,8.21,1.08,9.76,2.48a6.54,6.54,0,0,1-.46-3.1,22.94,22.94,0,0,1,1.39-7.12c1.7-5,3.56-7.28,5.42-8.36-2.48.31-5.88-1.24-9.91-4C641,385.5,639.32,383,639,380.85Zm24.78,23.38q-1.86,0-3.72,2.79c-2,2.79-5,7.59-9,6.35-.46-.15-.93-.31-1.08-.62a15,15,0,0,1,1.24,3.72q.46,2.79.93,7a29.38,29.38,0,0,0,10.07-8.67c2.48-3.72,3.87-7.12,3.87-8.52A2.2,2.2,0,0,0,663.79,404.23Zm-36.08,8.52a12.4,12.4,0,0,1-3.25,2.32,47,47,0,0,1-6.19,2.94,27.47,27.47,0,0,0,19.2,8.05c2.32,0,2.94-1.08,2.94-2.32,0-1.7-1.7-2.48-4.18-3.25-3.25-.93-8.83-2.32-8.83-6.5C627.56,413.52,627.56,413.06,627.71,412.75ZM630,354.53c3.56,0,5.88,1.55,8.67,5.27,2,2.63,4.18,6.19,5.57,8.21,1.55-2.48,3.41-5.27,5.26-7.74a7.77,7.77,0,0,1,5.88-2.94c3.87,0,7.74,2.32,10.38,4.18,3.56,2.79,7.9,7,10.22,11.15a12.07,12.07,0,0,1,2,6.19c0,2.17-.93,4.34-3.1,7.12-2,2.63-4.65,5.88-6.19,7.74,2.94.77,6,1.7,9,2.63,4.18,1.39,5.42,4.49,5.42,7.9,0,6.35-4.34,15.95-9.14,20.91-2.63,2.79-4.8,4.18-7.43,4.18a14.52,14.52,0,0,1-5.26-1.08c-3.25-1.08-7.12-2.48-9.29-3.41.15,2.94.31,4.49.31,9.45,0,7.9-8.83,8.52-13.94,8.52a39.52,39.52,0,0,1-15.18-2.94c-5.11-2.48-6.81-5-6.81-13.16,0-2.79.15-5,.31-7l.15-1.08c-2.79,1.08-5.88,2.17-8.83,3.1-7.59,2.48-10.84-5.73-12.39-10.37a36.43,36.43,0,0,1-2-12.08c0-8.21,2.63-11,8.83-13,3.25-1.08,7.28-2,9.6-2.63-1.86-2.32-3.87-4.8-5.73-7.43a7.43,7.43,0,0,1-1.55-4.34c0-4.65,4.65-8.36,7.74-10.53C616.41,358.55,623.53,354.53,630,354.53Z" transform="translate(-45.47 -325.21)" style="fill:#ed1c24"/><rect x="119.23" y="52.55" width="10.84" height="54.2" style="fill:#004785"/><path d="M154.8,420.65l.62-.46-2.63,10.53h-.15a16.9,16.9,0,0,1-9.76,2.48c-7.28-.15-12.23-5.88-12.23-14.4v-31h-9.29V377.75h9.29V366.6l10.84-5.88v17h11.15v10.38H141.48v29.11c0,4.34,1.55,6.19,5.11,6.19A15.74,15.74,0,0,0,154.8,420.65Z" transform="translate(-45.47 -325.21)" style="fill:#004785"/><rect x="54.2" y="52.55" width="10.84" height="54.2" style="fill:#004785"/><path d="M56.78,405.63c0,10.07,7.12,17.34,16.88,17.34a18.26,18.26,0,0,0,13.16-6l.31-.31,6.35,7.59-.15.16c-5.26,6.19-11.61,9.14-19.36,9.14a29.57,29.57,0,0,1-20-7.28c-5.57-5.11-8.52-12.23-8.52-20.6,0-8.52,2.94-15.64,8.52-20.6a29.58,29.58,0,0,1,20-7.28c7.74,0,14.09,2.94,19.36,9.14l.15.15-6.35,7.59-.31-.31a18.26,18.26,0,0,0-13.16-6C63.9,388.28,56.78,395.56,56.78,405.63Z" transform="translate(-45.47 -325.21)" style="fill:#004785"/><path d="M587.45,432h-12.7l-5.11-9.45c-2.17-3.87-4.65-8.83-5.57-11-.93,2-3.72,7.28-5.88,11l-5.26,9.29H541l16.57-28-15.49-26h12.23l4.18,7.59c2.17,3.87,4.65,8.83,5.57,10.84,1.08-2,3.72-7.28,5.73-11l4.18-7.43h12.23l-15.49,26.17Z" transform="translate(-45.47 -325.21)" style="fill:#004785"/><path d="M515.29,386c-7.12,0-12.23,5-13.16,13.78h26.63C528.3,392.16,524,386,515.29,386Zm.77-9.76c15.33,0,23.38,12.7,23.38,27.56a40,40,0,0,1-.31,5H502c1.08,10.53,7.74,15,14.4,15a22.5,22.5,0,0,0,12.85-4.34l5.88,7.12c-4.65,4.65-11.15,7.28-19.36,7.28-12.54,0-24.31-10.37-24.31-28.65C491.44,386.27,502.13,376.21,516.06,376.21Z" transform="translate(-45.47 -325.21)" style="fill:#004785"/><path d="M483.7,400.21V432H472.86V401.14c0-11-3.41-15-10.37-15-7.12,0-10.22,5.11-10.22,13.94V432H441.43V401.14c0-11-3.25-15-10.22-15-7.12,0-10.84,5.11-10.84,13.94V432H409.53V377.29h10.84v5.26c2.63-4,7.74-6.35,13.32-6.35,7.28,0,11.92,2.79,14.87,8.05,3.87-5,8.05-8.05,16.57-8.05C477.51,376.21,483.7,381.94,483.7,400.21Z" transform="translate(-45.47 -325.21)" style="fill:#004785"/><path d="M375.92,406.4c-7,0-11.77,3.1-11.77,8.21,0,5.42,3.87,9.14,11,9.14a18.41,18.41,0,0,0,13.78-7v-7.9C386,407.49,381.81,406.4,375.92,406.4Zm2.32-30.2c12.39,0,21.83,6,21.83,18.43v37.78H388.93V427a23,23,0,0,1-15.64,6.66c-8.83-.15-19.67-5.11-19.67-18.74,0-12.23,10.07-17.81,22.61-17.81,5.11,0,9.76.77,12.7,2.17v-4c0-6-4.49-9.29-11.3-9.29a28.72,28.72,0,0,0-14.4,3.41L359,381.16C364.31,377.91,370.35,376.21,378.25,376.21Z" transform="translate(-45.47 -325.21)" style="fill:#004785"/><path d="M269.08,406.4c-7,0-11.77,3.1-11.77,8.21,0,5.42,3.87,9.14,11,9.14a18.41,18.41,0,0,0,13.78-7v-7.9C279.14,407.49,275,406.4,269.08,406.4Zm2.32-30.2c12.39,0,21.83,6,21.83,18.43v37.78H282.09V427a23,23,0,0,1-15.64,6.66c-8.83-.15-19.67-5.11-19.67-18.74,0-12.23,10.07-17.81,22.61-17.81,5.11,0,9.76.77,12.7,2.17v-4c0-6-4.49-9.29-11.3-9.29a28.72,28.72,0,0,0-14.4,3.41l-4.18-8.21C257.46,377.91,263.5,376.21,271.4,376.21Z" transform="translate(-45.47 -325.21)" style="fill:#004785"/><path d="M347.43,400.67V432h-11V401.14c0-11-4.18-15-11.3-15s-11.61,5.11-11.61,13.94V432h-11V377.29h11v5.26c2.63-4,8.67-6.35,14.4-6.35C340.62,376.21,347.43,383.33,347.43,400.67Z" transform="translate(-45.47 -325.21)" style="fill:#004785"/><path d="M218,386.43c-5.11,0-10.37,3.41-13.16,7v23.07c2.32,3.25,8.21,7.12,13.47,7.12,7.59,0,13-5.88,13-17.34C231.45,392.47,225.87,386.43,218,386.43Zm-12.85-25.71V383a22.15,22.15,0,0,1,15-6.35c11.61,0,22.14,8.52,22.14,29.27,0,18.74-11.46,27.56-22.61,27.56a21.35,21.35,0,0,1-14.4-6.19v5.11H194.13V366.6Z" transform="translate(-45.47 -325.21)" style="fill:#004785"/><path d="M712.31,336.07c0,1.85-1.09,2.69-3.38,2.69h-4v-5.43h4.26C711.19,333.33,712.31,334.26,712.31,336.07Zm2.13,0c0-3.18-2.25-4.62-5.15-4.62h-6.51v16h2.13v-6.72h3.46l3.46,6.72h2.49l-3.58-6.88A4.44,4.44,0,0,0,714.44,336.07Zm6.11,3.66A12.55,12.55,0,1,1,708,327.06,12.2,12.2,0,0,1,720.56,339.73Zm2,0c0-8.65-6.27-14.52-14.52-14.52s-14.52,5.87-14.52,14.52,6.27,14.52,14.52,14.52S722.53,348.37,722.53,339.73Z" transform="translate(-45.47 -325.21)" style="fill:#056dae"/></svg>