<svg xmlns="http://www.w3.org/2000/svg" viewBox="0 0 452.89 135.83"><g id="_Group_" data-name="&lt;Group&gt;"><g id="_Group_2" data-name="&lt;Group&gt;"><g id="_Group_3" data-name="&lt;Group&gt;"><path d="M225.47,316.08A67.92,67.92,0,1,0,293.39,384,67.92,67.92,0,0,0,225.47,316.08Zm31.15,98a4.23,4.23,0,0,1-5.82,1.41c-15.95-9.75-36-11.95-59.66-6.55a4.23,4.23,0,1,1-1.88-8.25c25.87-5.91,48.06-3.37,66,7.57A4.23,4.23,0,0,1,256.62,414Zm8.31-18.49a5.3,5.3,0,0,1-7.28,1.74c-18.25-11.22-46.08-14.47-67.68-7.91a5.29,5.29,0,1,1-3.08-10.13c24.67-7.49,55.33-3.86,76.3,9A5.3,5.3,0,0,1,264.93,395.55Zm.72-19.26c-21.89-13-58-14.2-78.9-7.85a6.35,6.35,0,1,1-3.69-12.16c24-7.28,63.87-5.88,89.07,9.09a6.35,6.35,0,0,1-6.48,10.93Z" transform="translate(-157.55 -316.08)" fill="currentColor"/></g></g><g id="_Group_4" data-name="&lt;Group&gt;"><g id="_Group_5" data-name="&lt;Group&gt;"><path id="_Path_" data-name="&lt;Path&gt;" d="M342.33,378.78c-11.73-2.8-13.81-4.76-13.81-8.88,0-3.9,3.67-6.52,9.12-6.52,5.29,0,10.53,2,16,6.09a.77.77,0,0,0,.58.14.76.76,0,0,0,.51-.31l5.73-8.07a.77.77,0,0,0-.15-1,34.64,34.64,0,0,0-22.52-7.8c-12.66,0-21.51,7.6-21.51,18.47,0,11.66,7.63,15.79,20.81,19,11.22,2.58,13.12,4.75,13.12,8.62,0,4.29-3.83,7-10,7-6.84,0-12.43-2.31-18.67-7.71a.81.81,0,0,0-.56-.18.76.76,0,0,0-.53.27l-6.42,7.64a.76.76,0,0,0,.08,1.07A38.27,38.27,0,0,0,340,416.39c13.64,0,22.46-7.46,22.46-19C362.45,387.65,356.62,382.26,342.33,378.78Z" transform="translate(-157.55 -316.08)" fill="currentColor"/><path id="_Compound_Path_" data-name="&lt;Compound Path&gt;" d="M393.31,367.22a18.4,18.4,0,0,0-14.76,7.1v-5.37a.77.77,0,0,0-.77-.77h-10.5a.77.77,0,0,0-.77.77v59.69a.77.77,0,0,0,.77.77h10.5a.77.77,0,0,0,.77-.77V409.8a18.86,18.86,0,0,0,14.76,6.68c11,0,22.11-8.46,22.11-24.63S404.3,367.22,393.31,367.22Zm9.9,24.63c0,8.23-5.07,14-12.33,14s-12.6-6-12.6-14,5.42-14,12.6-14S403.22,383.75,403.22,391.85Z" transform="translate(-157.55 -316.08)" fill="currentColor"/><path id="_Compound_Path_2" data-name="&lt;Compound Path&gt;" d="M443.94,367.22c-14.15,0-25.24,10.9-25.24,24.81,0,13.76,11,24.54,25.06,24.54s25.32-10.86,25.32-24.72S458,367.22,443.94,367.22Zm0,38.7c-7.53,0-13.2-6-13.2-14.07s5.48-13.9,13-13.9,13.29,6,13.29,14.07S451.54,405.92,443.94,405.92Z" transform="translate(-157.55 -316.08)" fill="currentColor"/><path id="_Path_2" data-name="&lt;Path&gt;" d="M499.31,368.18H487.75V356.36a.77.77,0,0,0-.77-.77h-10.5a.77.77,0,0,0-.77.77v11.81h-5a.77.77,0,0,0-.76.77v9a.77.77,0,0,0,.76.77h5v23.35c0,9.44,4.7,14.22,14,14.22a19.15,19.15,0,0,0,9.84-2.45.77.77,0,0,0,.39-.67V404.6a.77.77,0,0,0-1.11-.69,13.23,13.23,0,0,1-6.16,1.49c-3.37,0-4.87-1.53-4.87-5v-21.7h11.55a.77.77,0,0,0,.77-.77v-9A.77.77,0,0,0,499.31,368.18Z" transform="translate(-157.55 -316.08)" fill="currentColor"/><path id="_Path_3" data-name="&lt;Path&gt;" d="M539.57,368.22v-1.45c0-4.27,1.64-6.17,5.31-6.17a17.72,17.72,0,0,1,5.92,1.09.77.77,0,0,0,1-.73v-8.85a.77.77,0,0,0-.54-.74,28.82,28.82,0,0,0-8.73-1.25c-9.7,0-14.82,5.46-14.82,15.79v2.22h-5a.77.77,0,0,0-.77.77V378a.77.77,0,0,0,.77.77h5v36a.77.77,0,0,0,.77.77H539a.77.77,0,0,0,.77-.77v-36h9.8l15,36c-1.7,3.78-3.38,4.54-5.67,4.54a12.11,12.11,0,0,1-5.79-1.64.79.79,0,0,0-.61-.06.78.78,0,0,0-.45.41l-3.56,7.81a.76.76,0,0,0,.33,1A22.11,22.11,0,0,0,560,429.67c7.75,0,12-3.61,15.82-13.33l18.22-47.07a.77.77,0,0,0-.71-1H582.41a.77.77,0,0,0-.73.52l-11.2,32-12.27-32a.77.77,0,0,0-.72-.49Z" transform="translate(-157.55 -316.08)" fill="currentColor"/><rect id="_Path_4" data-name="&lt;Path&gt;" x="347.4" y="52.09" width="12.04" height="47.35" rx="0.77" ry="0.77" fill="currentColor"/><circle id="_Path_5" data-name="&lt;Path&gt;" cx="353.47" cy="38.76" r="7.53" fill="currentColor"/></g><g id="_Group_6" data-name="&lt;Group&gt;"><path id="_Compound_Path_3" data-name="&lt;Compound Path&gt;" d="M603,382.91a7.41,7.41,0,1,1,7.43-7.43A7.36,7.36,0,0,1,603,382.91Zm0-14.08a6.67,6.67,0,1,0,6.61,6.65A6.61,6.61,0,0,0,603.06,368.82Zm1.64,7.41,2.09,2.93H605l-1.88-2.68h-1.62v2.68H600V371.4h3.46c1.8,0,3,.92,3,2.47A2.31,2.31,0,0,1,604.69,376.23Zm-1.25-3.5h-1.92v2.45h1.92c1,0,1.53-.47,1.53-1.23S604.41,372.73,603.45,372.73Z" transform="translate(-157.55 -316.08)" fill="currentColor"/></g></g></g></svg>