<?xml version="1.0" encoding="UTF-8"?><svg id="Layer_1" xmlns="http://www.w3.org/2000/svg" viewBox="0 0 465.67 79.01"><defs><style>.cls-1{fill:currentColor;fill-rule:evenodd;}</style></defs><path class="cls-1" d="M75.16,29.14c-1.68-13.14-7.7-23.61-13.73-23.61-6.62,0-12.15,9.28-14.32,23.61h-1.09c-13.14-2.77-20.25-6.62-20.25-11.56,0-7.11,15.31-12.64,34.57-12.64s36.15,5.53,36.15,12.64c0,4.94-8.2,9.88-21.33,11.56h0ZM122.27,39.51C122.27,17.09,95.41,0,60.84,0S0,17.09,0,39.01s26.86,40,61.43,40,60.84-17.48,60.84-39.51h0ZM65.78,74.07c7.11-6.52,10.47-18.07,10.47-35.06h0l.49-.59c17.58-2.17,29.63-9.88,29.63-18.07v-.59c4.94,5.53,7.11,11.56,7.11,18.17,0,18.67-20.84,34.57-47.7,36.15h0ZM15.9,19.26q-.59.49-.59,1.09c0,8.2,12.05,15.41,30.22,18.07l.49.59v1.09c0,16.49,3.85,27.95,10.47,33.98-28.05-2.17-47.8-17.48-47.8-36.74,0-6.02,2.27-12.64,7.21-18.07h0ZM69.63,30.22h-16.49l-1.09-.59c1.68-9.28,4.94-14.82,8.79-14.82,4.44,0,7.11,4.94,8.79,14.82v.59h0ZM70.71,39.51c-.49,13.24-4.35,22.52-9.28,22.52-5.53,0-9.38-9.28-9.88-22.52h.49c2.77,0,6.02.59,9.88.59,4.44,0,5.53,0,8.79-.59h0Z"/><polygon class="cls-1" points="181.03 22.52 163.45 22.52 163.45 67.55 150.81 67.55 150.81 22.52 133.83 22.52 133.83 12.15 181.03 12.15 181.03 22.52 181.03 22.52"/><path class="cls-1" d="M229.23,40.1c0,10.96-6.52,18.67-15.9,18.67-9.88,0-16.39-7.11-16.39-18.67.49-10.96,6.52-18.67,16.39-18.67s15.9,7.7,15.9,18.67h0ZM242.47,40.1c0-16.49-13.24-29.63-29.14-29.63s-29.63,13.14-29.63,30.12c0,16,13.23,29.14,29.13,29.14,16.99,0,29.63-13.14,29.63-29.63h0Z"/><polygon class="cls-1" points="278.12 47.21 278.12 67.55 265.48 67.55 265.48 47.21 243.55 12.15 257.78 12.15 271.5 35.16 285.73 12.15 300.54 12.15 278.12 47.21 278.12 47.21"/><path class="cls-1" d="M345.58,40.1c0,10.96-6.02,18.67-15.9,18.67s-15.9-7.11-15.9-18.67c0-10.96,6.52-18.67,16.39-18.67s15.41,7.7,15.41,18.67h0ZM359.3,40.1c0-16.49-13.13-29.63-29.63-29.63s-29.14,13.14-29.14,30.12c0,16,12.64,29.14,29.14,29.14s29.63-13.14,29.63-29.63h0Z"/><polygon class="cls-1" points="409.18 22.52 391.7 22.52 391.7 67.55 379.06 67.55 379.06 22.52 362.07 22.52 362.07 12.15 409.18 12.15 409.18 22.52 409.18 22.52"/><path class="cls-1" d="M435.55,24.2l7.7,21.33h-15.9l8.2-21.33h0ZM443.25,12.15h-15.41l-22.52,55.41h13.73l4.44-12.15h23.6l4.94,12.15h13.63l-22.42-55.41h0Z"/></svg>