<svg data-name="Layer 1" xmlns="http://www.w3.org/2000/svg" viewBox="0 0 668.95 164.66"><g id="_Group_" data-name="&lt;Group&gt;"><path id="_Path_" data-name="&lt;Path&gt;" d="M96.19,309.79c21.88-10.68,48.43-10.76,70.52-.61-17.08-1.42-34.16,4.24-48.38,13.47A71.59,71.59,0,0,0,88.26,364.4c-3.13,12.1-2.6,25.28,2.41,36.81,6.89,16.45,23.66,28.68,41.7,28.73A44.19,44.19,0,0,0,161,420a44.91,44.91,0,0,0,16.12-31.94c.45-10-2-20.38-8.39-28.22-7-8.67-17.53-13.5-28.12-16.07-1.05-15.94,11.33-31.09,26.83-34.2a82.34,82.34,0,0,1-35,156.75A82.33,82.33,0,0,1,96.19,309.79Z" transform="translate(-49.52 -301.67)" fill="currentColor"/><path id="_Path_2" data-name="&lt;Path&gt;" d="M505,341.42c2.64-4.51,7.66-7.2,12.77-7.8a35.69,35.69,0,0,1,17.56,2.16c-.49,4.31-1.16,8.59-1.72,12.9-4.21-1.61-9.45-2.87-13.52-.31-3.15,2.13-2.91,6.3-2.8,9.65,4.29,0,8.59,0,12.9,0q0,6.29,0,12.57c-4.29,0-8.57,0-12.85,0q0,23.82,0,47.62c-5.14,0-10.28,0-15.41,0,0-15.88,0-31.76,0-47.64-2.67,0-5.34,0-8,0q0-6.29,0-12.57c2.67,0,5.35,0,8,0C501.75,352.37,501.89,346.36,505,341.42Z" transform="translate(-49.52 -301.67)" fill="currentColor"/><g id="_Group_2" data-name="&lt;Group&gt;"><path id="_Compound_Path_" data-name="&lt;Compound Path&gt;" d="M411.3,334.9c5.17,0,10.34,0,15.51,0v83.25c-4.74,0-9.47,0-14.21,0-.26-1.55-.48-3.1-.63-4.67-7.11,8-20.28,7.63-28.22,1.1-7.86-6.3-11.16-16.79-11.11-26.57-.2-10.39,4.08-21.5,13.11-27.26,7.45-5,17.18-5.23,25.55-2.59Q411.29,346.55,411.3,334.9Zm-15.71,36.43c-4.44,2.6-6.87,7.63-7.61,12.56a28.33,28.33,0,0,0,1.85,14.43,12.28,12.28,0,0,0,21.5,2.81c-.08-10,0-19.95,0-29.92C406.32,369.34,400.37,368.57,395.59,371.34Z" transform="translate(-49.52 -301.67)" fill="currentColor"/></g><g id="_Group_3" data-name="&lt;Group&gt;"><path id="_Compound_Path_2" data-name="&lt;Compound Path&gt;" d="M328.14,357.42c7.66-1.7,16.24-1.18,23,3.18,7,4.31,11.5,11.93,13,19.91,1.66,8.95.32,18.62-4.59,26.38a26.47,26.47,0,0,1-16.93,11.95c-7,1.37-14.67.75-20.89-2.94a28.37,28.37,0,0,1-12.44-15.56,37,37,0,0,1,1.75-29A26.74,26.74,0,0,1,328.14,357.42Zm4,12.66c-4.54,1.49-7.61,5.76-8.77,10.25a28,28,0,0,0,.83,17.32c1.44,3.69,4.41,7,8.35,8a12,12,0,0,0,12.27-3.34c4-4.34,5-10.6,4.7-16.31-.23-5-1.79-10.42-5.79-13.77C340.58,369.49,336,369,332.11,370.07Z" transform="translate(-49.52 -301.67)" fill="currentColor"/></g><g id="_Group_4" data-name="&lt;Group&gt;"><path id="_Compound_Path_3" data-name="&lt;Compound Path&gt;" d="M440.5,363.79a38.13,38.13,0,0,1,29.37-6.6,18.52,18.52,0,0,1,12.66,8.67c3,5,3.41,11,3.26,16.76q0,17.77,0,35.53-7.1,0-14.2,0c-.16-1.49-.35-3-.61-4.45-7.83,7.92-22.16,7.68-29.83-.34a19.05,19.05,0,0,1-4.39-17.87c1.38-5.31,5.65-9.39,10.49-11.68,7.16-3.4,15.19-4.1,23-4.7.18-3.39-.64-7.57-4.17-9-7-3-14.78.34-20.48,4.59C443.93,371,442.18,367.44,440.5,363.79ZM455.18,393a8,8,0,0,0-3.5,9.21c1,2.71,3.9,4.09,6.62,4.23,4.43.51,8.74-1.39,12.07-4.21,0-4.1,0-8.19,0-12.29C465.24,390.46,459.83,390.52,455.18,393Z" transform="translate(-49.52 -301.67)" fill="currentColor"/></g><g id="_Group_5" data-name="&lt;Group&gt;"><path id="_Compound_Path_4" data-name="&lt;Compound Path&gt;" d="M554.69,357.33c7.51-1.58,15.85-1,22.45,3.17,7.13,4.3,11.72,12.06,13.17,20.15a36.54,36.54,0,0,1-3.89,25.07,26.69,26.69,0,0,1-16.88,12.95c-7.61,1.67-16.09.95-22.7-3.44-6.65-4.21-10.9-11.45-12.57-19a36.15,36.15,0,0,1,4.35-27.33A26.36,26.36,0,0,1,554.69,357.33Zm4,12.62a13.63,13.63,0,0,0-8.51,8.48A27.62,27.62,0,0,0,550,396.6a14.83,14.83,0,0,0,4.9,7.17,12.21,12.21,0,0,0,15.65-1c4.05-4,5.26-9.93,5.29-15.41-.18-5.56-1.59-11.69-6.15-15.32C566.65,369.51,562.38,369.05,558.66,370Z" transform="translate(-49.52 -301.67)" fill="currentColor"/></g><path id="_Path_3" data-name="&lt;Path&gt;" d="M615.58,362.69A27.87,27.87,0,0,1,638.25,357a17.65,17.65,0,0,1,12.49,8.43c3.38,5.77,4,12.67,3.81,19.22q0,16.74,0,33.49c-5.17,0-10.33,0-15.5,0q0-16.76,0-33.51c0-4.1-.49-8.6-3.26-11.85a9.4,9.4,0,0,0-7.76-3.25c-4.7-.18-8.57,3-11.87,5.92q0,21.34,0,42.69-7.73,0-15.45,0,0-30.08,0-60.18c4.71,0,9.41,0,14.12,0C615.12,359.55,615.35,361.11,615.58,362.69Z" transform="translate(-49.52 -301.67)" fill="currentColor"/><g id="_Group_6" data-name="&lt;Group&gt;"><path id="_Compound_Path_5" data-name="&lt;Compound Path&gt;" d="M671.88,364.91c9.53-10.49,28-11.48,38.23-1.44C717.3,371,718.75,382,718.44,392c-13-.06-26,0-39,0,0,5.26,2.67,10.78,7.78,12.77,8.13,3.15,17.7,1.18,24.7-3.77,1.22,4.25,2.83,8.36,4,12.63-6.38,4.15-14.11,5.6-21.6,5.9-8,.2-16.43-2.1-22-8-6.75-6.8-9-16.85-8.31-26.16C664.21,377.91,666.78,370.39,671.88,364.91Zm12.29,6.83c-2.81,2.19-4.05,5.69-4.52,9.09h23.11c-.45-4.34-2.43-9-6.65-10.9C692.24,367.84,687.42,369,684.17,371.74Z" transform="translate(-49.52 -301.67)" fill="currentColor"/></g><path id="_Path_4" data-name="&lt;Path&gt;" d="M242.45,358q8.3,0,16.58,0c4.83,12.34,9.74,24.65,14.57,37,.36.9.79,1.77,1.24,2.63Q282.37,377.81,290,358c5.26,0,10.52,0,15.78,0Q293.48,388,281.26,418.12c-4.49.09-9,0-13.48,0C259.28,398.14,251,378,242.45,358Z" transform="translate(-49.52 -301.67)" fill="currentColor"/></g></svg>